<svg width="283" height="138" viewBox="0 0 283 138" fill="none" xmlns="http://www.w3.org/2000/svg">
<path d="M61.414 31.3188C63.0714 28.212 63.3449 24.1656 61.2841 21.3069C60.0573 19.6051 58.1419 18.4881 56.1321 17.858C54.1222 17.2279 52.002 17.0427 49.9001 16.8896C47.8194 16.738 45.7016 16.6167 43.669 17.084C41.6365 17.5513 39.6677 18.6929 38.6776 20.5164C37.0049 23.5968 38.5286 27.5467 37.3 30.8269C36.1726 33.8371 32.9638 35.597 29.8095 36.3072C26.6551 37.0174 23.3628 36.9418 20.2069 37.6451C17.051 38.3484 13.8369 40.092 12.6895 43.0947C11.8597 45.2661 12.272 47.7673 13.3653 49.8203C14.4587 51.8734 16.171 53.5356 17.9886 54.9972C20.7001 57.1777 23.8725 59.0453 27.3565 59.2343C31.0276 59.4335 34.6171 57.6982 37.2593 55.1597C39.9016 52.6212 41.7004 49.3408 43.1376 45.9806C44.0493 43.8489 44.9108 41.5548 46.7379 40.1153C48.0804 39.0575 49.788 38.5941 51.444 38.1558L53.3192 37.6595C55.0185 37.2181 56.6087 36.4361 57.9922 35.3616C59.3757 34.2871 60.5232 32.9429 61.364 31.4117C61.3807 31.3808 61.3974 31.3498 61.414 31.3188Z" fill="#2F2E41"/>
<path d="M46.6286 133.514H42.82L41.0078 118.926H46.6295L46.6286 133.514Z" fill="#FFB8B8"/>
<path d="M40.0977 132.434H47.4433V137.026H35.4727C35.4727 136.423 35.5923 135.826 35.8247 135.269C36.0571 134.711 36.3978 134.205 36.8273 133.779C37.2568 133.352 37.7666 133.014 38.3278 132.783C38.8889 132.552 39.4903 132.434 40.0977 132.434Z" fill="#2F2E41"/>
<path d="M78.3161 133.514H74.5075L72.6953 118.926H78.317L78.3161 133.514Z" fill="#FFB8B8"/>
<path d="M71.7852 132.434H79.1308V137.026H67.1602C67.1602 136.423 67.2798 135.826 67.5122 135.269C67.7446 134.711 68.0853 134.205 68.5148 133.779C68.9443 133.352 69.4541 133.014 70.0153 132.783C70.5764 132.552 71.1778 132.434 71.7852 132.434Z" fill="#2F2E41"/>
<path d="M53.9492 121.922C53.896 121.922 53.8429 121.919 53.7901 121.914L38.2942 120.265C38.0884 120.243 37.8897 120.178 37.7112 120.074C37.5328 119.97 37.3787 119.829 37.2593 119.661C37.1398 119.494 37.0578 119.302 37.0186 119.101C36.9794 118.899 36.9839 118.691 37.0319 118.491L50.7522 66.6734C50.8165 66.4097 50.9537 66.1692 51.1483 65.9788C51.3429 65.7884 51.5872 65.6558 51.8537 65.596L64.5816 62.073C64.8368 62.0173 65.1024 62.0304 65.3508 62.1107C65.5992 62.1911 65.8215 62.3359 65.9947 62.5302C74.1781 71.6956 80.3451 92.0132 85.0167 117.622C85.0519 117.816 85.0472 118.014 85.0028 118.205C84.9583 118.397 84.8751 118.577 84.7582 118.736C84.6413 118.894 84.4932 119.027 84.3228 119.127C84.1524 119.227 83.9634 119.291 83.7672 119.316L71.0705 120.926C70.7103 120.972 70.3457 120.883 70.0484 120.676C69.7511 120.469 69.5426 120.159 69.464 119.807L63.2866 92.4594C63.2297 92.2077 63.0876 91.983 62.8839 91.823C62.6801 91.6629 62.4272 91.5772 62.1675 91.5802C61.9077 91.5832 61.6568 91.6746 61.4569 91.8393C61.2569 92.004 61.12 92.2319 61.0691 92.4849L55.3743 120.759C55.3098 121.087 55.1323 121.382 54.8722 121.595C54.6122 121.807 54.2858 121.923 53.9492 121.922Z" fill="#2F2E41"/>
<path d="M51.5915 38.4351C55.8058 38.4351 59.2221 35.0428 59.2221 30.8582C59.2221 26.6735 55.8058 23.2812 51.5915 23.2812C47.3773 23.2812 43.9609 26.6735 43.9609 30.8582C43.9609 35.0428 47.3773 38.4351 51.5915 38.4351Z" fill="#FFB8B8"/>
<path d="M51.3792 66.817C51.0584 66.8167 50.7467 66.7111 50.4926 66.5166C50.2386 66.3221 50.0564 66.0497 49.9745 65.7417L45.3839 48.6174C45.0526 47.3869 45.1898 46.0784 45.7693 44.942C46.3488 43.8057 47.3299 42.9215 48.5249 42.4585C52.2201 41.0262 55.7407 40.4949 58.9887 40.8786C61.8755 41.2203 65.4367 58.1907 65.2011 58.5528L66.3403 61.9461C66.4049 62.1386 66.428 62.3424 66.4082 62.5443C66.3884 62.7462 66.326 62.9417 66.2252 63.1181C66.1243 63.2945 65.9873 63.4479 65.8229 63.5683C65.6585 63.6887 65.4704 63.7735 65.2709 63.8171L51.6958 66.7824C51.5918 66.8053 51.4856 66.8169 51.3792 66.817Z" fill="#CCCCCC"/>
<path d="M55.4925 84.3279C55.5579 83.9908 55.5481 83.6437 55.4637 83.3108C55.3794 82.978 55.2225 82.6675 55.0043 82.4014C54.786 82.1352 54.5117 81.9198 54.2005 81.7703C53.8894 81.6209 53.549 81.5409 53.2034 81.5362L50.5586 73.6172L47.8555 77.0219L50.7814 84.02C50.8119 84.5971 51.0545 85.143 51.4633 85.5543C51.872 85.9656 52.4185 86.2138 52.9992 86.2517C53.5799 86.2897 54.1545 86.1148 54.614 85.7602C55.0735 85.4056 55.3861 84.896 55.4925 84.3279Z" fill="#FFB8B8"/>
<path d="M89.4964 65.2959C89.338 64.9908 89.1143 64.7239 88.8408 64.5139C88.5673 64.304 88.2509 64.1561 87.9136 64.0808C87.5764 64.0054 87.2266 64.0044 86.889 64.0778C86.5513 64.1512 86.234 64.2973 85.9593 64.5056L78.9517 59.9023L78.9453 64.2379L85.6008 67.9445C85.9839 68.3795 86.5144 68.6599 87.0917 68.7325C87.6691 68.805 88.2532 68.6648 88.7334 68.3383C89.2135 68.0118 89.5564 67.5218 89.6971 66.9611C89.8377 66.4003 89.7663 65.8078 89.4964 65.2959H89.4964Z" fill="#FFB8B8"/>
<path d="M49.948 80.6704C49.6415 80.6705 49.3428 80.5746 49.0944 80.3964C48.846 80.2182 48.6604 79.9668 48.5642 79.6778L42.3641 66.6543C42.1098 65.8911 41.9803 65.0924 41.9805 64.2885L43.8445 47.361C43.8445 46.4133 44.2087 45.5013 44.8628 44.8111C45.517 44.121 46.4118 43.7047 47.3645 43.6474C48.3172 43.5901 49.256 43.8961 49.9893 44.5027C50.7226 45.1094 51.195 45.9712 51.3101 46.912L48.4582 66.2332L53.0093 78.0917C53.0813 78.4072 53.0445 78.7375 52.9049 79.0298C52.7653 79.3221 52.5309 79.5593 52.2393 79.7036L50.5995 80.5178C50.3972 80.6183 50.1741 80.6705 49.948 80.6704Z" fill="#CCCCCC"/>
<path d="M83.061 67.0075C82.8327 67.0076 82.6076 66.9543 82.4039 66.852L70.0738 60.6676C69.3509 60.3055 68.6913 59.8305 68.1199 59.2608L56.0852 47.272C55.4114 46.6008 55.021 45.6995 54.9937 44.7522C54.9664 43.8049 55.3043 42.8829 55.9383 42.1746C56.5724 41.4662 57.4548 41.0248 58.4054 40.9405C59.3561 40.8562 60.3033 41.1354 61.0537 41.7211L74.0905 56.0977L84.4247 62.613C84.7 62.7859 84.9088 63.0457 85.0177 63.3505C85.1266 63.6554 85.1293 63.9878 85.0252 64.2943L84.4427 66.0205C84.3455 66.308 84.1599 66.5579 83.912 66.735C83.6641 66.9121 83.3664 67.0074 83.061 67.0075L83.061 67.0075Z" fill="#CCCCCC"/>
<path d="M42.9102 26.9393C44.2063 28.623 46.0696 29.7872 48.1591 30.219C50.2771 30.6536 52.4815 30.34 54.3914 29.3323C55.9282 28.5078 57.158 27.2703 58.3625 26.052C58.8651 25.5436 59.4006 24.9572 59.3753 24.2635C59.3361 23.1888 58.0349 22.6013 56.9182 22.3669C53.2526 21.6076 49.4385 22.0335 46.0343 23.5823C44.5182 24.2816 42.9386 25.5468 43.1662 27.1194" fill="#2F2E41"/>
<mask id="path-14-inside-1_6551_27511" fill="white">
<path d="M276.542 0H93.4536C91.7417 0.00310414 90.1006 0.875442 88.8901 2.42576C87.6796 3.97608 86.9985 6.07788 86.9961 8.27036V98.7578C86.9985 100.95 87.6796 103.052 88.8901 104.602C90.1006 106.153 91.7417 107.025 93.4536 107.028H276.542C278.254 107.025 279.895 106.153 281.106 104.602C282.316 103.052 282.997 100.95 283 98.7578V8.27036C282.997 6.07788 282.316 3.97608 281.106 2.42576C279.895 0.875442 278.254 0.00310286 276.542 0ZM282.24 98.7578C282.238 100.692 281.637 102.547 280.569 103.915C279.501 105.283 278.053 106.053 276.542 106.055H93.4536C91.943 106.053 90.4948 105.283 89.4267 103.915C88.3585 102.547 87.7576 100.692 87.7558 98.7578V8.27036C87.7576 6.3357 88.3585 4.48095 89.4267 3.11294C90.4948 1.74492 91.943 0.975337 93.4536 0.972983H276.542C278.053 0.975337 279.501 1.74492 280.569 3.11294C281.637 4.48095 282.238 6.3357 282.24 8.27036V98.7578Z"/>
</mask>
<path d="M276.542 0H93.4536C91.7417 0.00310414 90.1006 0.875442 88.8901 2.42576C87.6796 3.97608 86.9985 6.07788 86.9961 8.27036V98.7578C86.9985 100.95 87.6796 103.052 88.8901 104.602C90.1006 106.153 91.7417 107.025 93.4536 107.028H276.542C278.254 107.025 279.895 106.153 281.106 104.602C282.316 103.052 282.997 100.95 283 98.7578V8.27036C282.997 6.07788 282.316 3.97608 281.106 2.42576C279.895 0.875442 278.254 0.00310286 276.542 0ZM282.24 98.7578C282.238 100.692 281.637 102.547 280.569 103.915C279.501 105.283 278.053 106.053 276.542 106.055H93.4536C91.943 106.053 90.4948 105.283 89.4267 103.915C88.3585 102.547 87.7576 100.692 87.7558 98.7578V8.27036C87.7576 6.3357 88.3585 4.48095 89.4267 3.11294C90.4948 1.74492 91.943 0.975337 93.4536 0.972983H276.542C278.053 0.975337 279.501 1.74492 280.569 3.11294C281.637 4.48095 282.238 6.3357 282.24 8.27036V98.7578Z" fill="#3F3D56"/>
<path d="M93.4536 0V-8H93.4463L93.4391 -7.99999L93.4536 0ZM86.9961 8.27036L78.9961 8.26151V8.27036H86.9961ZM86.9961 98.7578H78.9961L78.9961 98.7667L86.9961 98.7578ZM93.4536 107.028L93.4391 115.028L93.4463 115.028H93.4536V107.028ZM276.542 107.028V115.028H276.55L276.557 115.028L276.542 107.028ZM283 98.7578L291 98.7666V98.7578H283ZM283 8.27036H291L291 8.26152L283 8.27036ZM282.24 98.7578L290.24 98.7654V98.7578H282.24ZM276.542 106.055V114.055L276.555 114.055L276.542 106.055ZM93.4536 106.055L93.4411 114.055H93.4536V106.055ZM87.7558 98.7578H79.7558L79.7558 98.7654L87.7558 98.7578ZM87.7558 8.27036L79.7558 8.26276V8.27036H87.7558ZM93.4536 0.972983V-7.02703L93.4411 -7.02701L93.4536 0.972983ZM276.542 0.972983L276.555 -7.02702H276.542V0.972983ZM282.24 8.27036H290.24L290.24 8.26276L282.24 8.27036ZM276.542 -8H93.4536V8H276.542V-8ZM93.4391 -7.99999C88.8826 -7.99172 85.0532 -5.65929 82.5846 -2.49762L95.1957 7.34915C95.148 7.41018 94.6008 7.99793 93.4681 7.99999L93.4391 -7.99999ZM82.5846 -2.49762C80.1521 0.617672 79.0003 4.50368 78.9961 8.26151L94.9961 8.2792C94.9964 8.00024 95.041 7.75683 95.1004 7.57351C95.1609 7.38697 95.2164 7.3226 95.1957 7.34915L82.5846 -2.49762ZM78.9961 8.27036V98.7578H94.9961V8.27036H78.9961ZM78.9961 98.7667C79.0003 102.524 80.1521 106.411 82.5846 109.526L95.1957 99.679C95.2164 99.7056 95.1609 99.6412 95.1004 99.4547C95.041 99.2713 94.9964 99.0279 94.9961 98.749L78.9961 98.7667ZM82.5846 109.526C85.0532 112.688 88.8826 115.02 93.4391 115.028L93.4681 99.0282C94.6008 99.0302 95.148 99.618 95.1957 99.679L82.5846 109.526ZM93.4536 115.028H276.542V99.0282H93.4536V115.028ZM276.557 115.028C281.113 115.02 284.943 112.688 287.411 109.526L274.8 99.679C274.848 99.618 275.395 99.0302 276.528 99.0282L276.557 115.028ZM287.411 109.526C289.844 106.411 290.996 102.525 291 98.7666L275 98.749C274.999 99.0279 274.955 99.2713 274.895 99.4547C274.835 99.6412 274.779 99.7056 274.8 99.679L287.411 109.526ZM291 98.7578V8.27036H275V98.7578H291ZM291 8.26152C290.996 4.50364 289.844 0.617645 287.411 -2.49762L274.8 7.34915C274.779 7.32261 274.835 7.387 274.895 7.57353C274.955 7.75686 274.999 8.00025 275 8.2792L291 8.26152ZM287.411 -2.49762C284.943 -5.65929 281.113 -7.99173 276.557 -7.99999L276.528 7.99999C275.395 7.99793 274.848 7.41018 274.8 7.34915L287.411 -2.49762ZM274.24 98.7502C274.24 98.9 274.215 99.017 274.194 99.0834C274.184 99.1137 274.179 99.1213 274.186 99.1079C274.193 99.0947 274.216 99.0534 274.264 98.9919L286.875 108.839C289.165 105.905 290.237 102.266 290.24 98.7654L274.24 98.7502ZM274.264 98.9919C274.454 98.7481 275.195 98.0573 276.53 98.0552L276.555 114.055C280.911 114.048 284.548 111.818 286.875 108.839L274.264 98.9919ZM276.542 98.0552H93.4536V114.055H276.542V98.0552ZM93.466 98.0552C94.8009 98.0573 95.5419 98.7481 95.7322 98.9919L83.1211 108.839C85.4477 111.818 89.0851 114.048 93.4411 114.055L93.466 98.0552ZM95.7322 98.9919C95.7803 99.0534 95.8032 99.0947 95.8101 99.1079C95.817 99.1213 95.8118 99.1138 95.8019 99.0834C95.7804 99.017 95.7559 98.9001 95.7558 98.7502L79.7558 98.7654C79.7591 102.266 80.8307 105.905 83.1211 108.839L95.7322 98.9919ZM95.7558 98.7578V8.27036H79.7558V98.7578H95.7558ZM95.7558 8.27796C95.7559 8.12811 95.7804 8.01113 95.8019 7.94478C95.8118 7.91442 95.817 7.90691 95.8101 7.92025C95.8032 7.9335 95.7803 7.97478 95.7322 8.03632L83.1211 -1.81045C80.8307 1.12292 79.7591 4.76238 79.7558 8.26276L95.7558 8.27796ZM95.7322 8.03632C95.5419 8.2801 94.8009 8.97089 93.466 8.97297L93.4411 -7.02701C89.0851 -7.02022 85.4477 -4.79026 83.1211 -1.81045L95.7322 8.03632ZM93.4536 8.97298H276.542V-7.02702H93.4536V8.97298ZM276.53 8.97297C275.195 8.97089 274.454 8.28011 274.264 8.03632L286.875 -1.81045C284.548 -4.79026 280.911 -7.02022 276.555 -7.02701L276.53 8.97297ZM274.264 8.03632C274.216 7.97478 274.193 7.93351 274.186 7.92026C274.179 7.90693 274.184 7.91443 274.194 7.9448C274.215 8.01115 274.24 8.12813 274.24 8.27796L290.24 8.26276C290.237 4.76235 289.165 1.1229 286.875 -1.81045L274.264 8.03632ZM274.24 8.27036V98.7578H290.24V8.27036H274.24Z" fill="black" mask="url(#path-14-inside-1_6551_27511)"/>
<path d="M118.679 137.457H0.310679C0.228282 137.457 0.149259 137.424 0.0909955 137.366C0.0327319 137.309 0 137.23 0 137.148C0 137.067 0.0327319 136.988 0.0909955 136.93C0.149259 136.872 0.228282 136.84 0.310679 136.84H118.679C118.762 136.84 118.841 136.872 118.899 136.93C118.957 136.988 118.99 137.067 118.99 137.148C118.99 137.23 118.957 137.309 118.899 137.366C118.841 137.424 118.762 137.457 118.679 137.457Z" fill="#3F3D56"/>
<ellipse cx="140.454" cy="53.5147" rx="19.9148" ry="19.9366" fill="#4CAD61"/>
<path d="M139.498 58.761C139.144 58.7616 138.8 58.6512 138.517 58.4464L138.5 58.4337L134.807 55.703C134.636 55.5764 134.492 55.4186 134.384 55.2385C134.277 55.0583 134.207 54.8594 134.178 54.6531C134.15 54.4469 134.164 54.2372 134.22 54.0362C134.275 53.8351 134.371 53.6467 134.502 53.4815C134.633 53.3163 134.797 53.1777 134.983 53.0735C135.17 52.9693 135.376 52.9017 135.589 52.8744C135.803 52.8471 136.02 52.8606 136.228 52.9144C136.436 52.9681 136.632 53.0609 136.803 53.1874L139.195 54.9588L144.847 47.8391C144.978 47.674 145.142 47.5354 145.328 47.4313C145.515 47.3272 145.721 47.2596 145.934 47.2324C146.148 47.2051 146.365 47.2188 146.573 47.2726C146.781 47.3264 146.976 47.4193 147.147 47.5459L147.112 47.592L147.148 47.5465C147.493 47.8025 147.719 48.1802 147.776 48.5967C147.833 49.0132 147.716 49.4345 147.452 49.7682L140.803 58.1426C140.649 58.3356 140.452 58.4918 140.225 58.599C139.999 58.7062 139.75 58.7617 139.498 58.761Z" fill="white"/>
<path d="M254.314 45.1172H189.055C188.143 45.1175 187.266 45.3276 186.609 45.7035C185.952 46.0794 185.565 46.5918 185.529 47.1335C185.525 47.1608 185.523 47.1883 185.524 47.2158C185.525 47.7721 185.897 48.3054 186.559 48.6988C187.221 49.0922 188.119 49.3136 189.055 49.3144H254.314C255.251 49.3144 256.149 49.0933 256.811 48.6997C257.474 48.3061 257.846 47.7724 257.846 47.2158C257.846 46.6592 257.474 46.1254 256.811 45.7319C256.149 45.3383 255.251 45.1172 254.314 45.1172Z" fill="black"/>
<path d="M255.361 64.0078H190.102C189.19 64.0081 188.313 64.2182 187.656 64.5941C186.999 64.97 186.612 65.4825 186.576 66.0241C186.571 66.0515 186.57 66.0789 186.571 66.1064C186.572 66.6627 186.944 67.1961 187.606 67.5895C188.268 67.9829 189.166 68.2042 190.102 68.205H255.361C256.298 68.205 257.196 67.9839 257.858 67.5903C258.52 67.1968 258.893 66.663 258.893 66.1064C258.893 65.5498 258.52 65.016 257.858 64.6225C257.196 64.2289 256.298 64.0078 255.361 64.0078Z" fill="black"/>
</svg>
