<svg width="194" height="206" viewBox="0 0 194 206" fill="none" xmlns="http://www.w3.org/2000/svg">
<path d="M131.622 199.248H126.02L123.355 177.645L131.623 177.645L131.622 199.248Z" fill="#9E616A"/>
<path d="M133.05 204.676L114.988 204.676V204.447C114.988 202.583 115.729 200.795 117.048 199.477C118.366 198.159 120.154 197.418 122.019 197.418H122.019L133.051 197.418L133.05 204.676Z" fill="#2F2E41"/>
<path d="M97.048 199.248H91.446L88.7812 177.645L97.0488 177.645L97.048 199.248Z" fill="#9E616A"/>
<path d="M98.4763 204.676L80.4141 204.676V204.447C80.4142 202.583 81.1549 200.795 82.4734 199.477C83.7918 198.159 85.5799 197.418 87.4444 197.418H87.4448L98.4766 197.418L98.4763 204.676Z" fill="#2F2E41"/>
<path d="M83.0719 78.265L75.3137 77.0664L72.8072 81.1003L45.8346 87.9749L45.9076 88.3467C45.1448 87.5504 44.1434 87.0242 43.0548 86.8477C41.9663 86.6712 40.8498 86.8541 39.8745 87.3687C38.8992 87.8832 38.118 88.7014 37.6493 89.6995C37.1805 90.6975 37.0497 91.8211 37.2765 92.9001C37.5034 93.9792 38.0756 94.955 38.9066 95.6798C39.7376 96.4047 40.7821 96.8391 41.8821 96.9175C42.9821 96.9958 44.0777 96.7138 45.003 96.114C45.9284 95.5142 46.6331 94.6294 47.0107 93.5934L79.6753 86.7817L83.0719 78.265Z" fill="#9E616A"/>
<path d="M160.561 73.4627C159.922 73.4633 159.289 73.5849 158.696 73.8212L158.851 73.5513L124.558 55.8281L119.883 63.3853L155.536 79.2095C155.666 80.1753 156.071 81.0833 156.703 81.8249C157.335 82.5665 158.168 83.1103 159.101 83.3913C160.034 83.6723 161.028 83.6786 161.965 83.4094C162.902 83.1402 163.741 82.6069 164.382 81.8733C165.024 81.1397 165.44 80.2369 165.582 79.2728C165.724 78.3087 165.585 77.3242 165.182 76.437C164.779 75.5498 164.129 74.7975 163.309 74.27C162.49 73.7426 161.536 73.4623 160.561 73.4627H160.561Z" fill="#9E616A"/>
<path d="M106.46 27.2366C107.8 18.9788 102.191 11.1982 93.9325 9.85815C85.6736 8.51809 77.8919 14.126 76.5517 22.3838C75.2115 30.6417 80.8202 38.4223 89.079 39.7623C97.3379 41.1024 105.12 35.4944 106.46 27.2366Z" fill="#2F2E41"/>
<path d="M91.3754 39.8263C96.7129 39.8263 101.04 35.5 101.04 30.1632C101.04 24.8264 96.7129 20.5 91.3754 20.5C86.0379 20.5 81.7109 24.8264 81.7109 30.1632C81.7109 35.5 86.0379 39.8263 91.3754 39.8263Z" fill="#A0616A"/>
<path d="M91.5066 26.8993C97.2769 26.8993 101.955 24.093 101.955 20.6313C101.955 17.1696 97.2769 14.3633 91.5066 14.3633C85.7363 14.3633 81.0586 17.1696 81.0586 20.6313C81.0586 24.093 85.7363 26.8993 91.5066 26.8993Z" fill="#2F2E41"/>
<path d="M92.5501 15.9305C96.0123 15.9305 98.8189 13.1242 98.8189 9.66253C98.8189 6.20081 96.0123 3.39453 92.5501 3.39453C89.0879 3.39453 86.2812 6.20081 86.2812 9.66253C86.2812 13.1242 89.0879 15.9305 92.5501 15.9305Z" fill="#2F2E41"/>
<path d="M84.1932 6.26798C84.1933 4.71865 84.7673 3.22426 85.8043 2.07306C86.8413 0.921856 88.268 0.195424 89.8091 0.0338918C89.5921 0.0113692 89.3742 5.58767e-05 89.156 0C87.4947 0.00193721 85.9021 0.663166 84.7281 1.83843C83.554 3.0137 82.8945 4.60689 82.8945 6.268C82.8945 7.92912 83.554 9.5223 84.7281 10.6976C85.9021 11.8728 87.4947 12.5341 89.156 12.536C89.3742 12.536 89.5921 12.5246 89.8091 12.5021C88.268 12.3406 86.8413 11.6141 85.8043 10.4629C84.7673 9.31173 84.1933 7.81731 84.1932 6.26798V6.26798Z" fill="#2F2E41"/>
<path d="M86.3496 54.1551L87.1291 46.6633C87.1291 46.6633 97.7036 39.6954 101.298 43.8137L122.778 80.5609C122.778 80.5609 136.13 85.3074 135.658 103.432L135.02 191.041L119.879 192.701L110.685 124.396L102.378 195.163L84.7502 194.611L86.3361 147.991L94.7416 102.798L94.661 87.8017L90.9591 81.7496C90.9591 81.7496 84.1779 79.0258 83.9883 71.3281L83.8398 60.5078L86.3496 54.1551Z" fill="#4CAD61"/>
<path d="M97.4375 45.8712L97.6461 42.3594C97.6461 42.3594 129.632 50.787 127.094 56.8127C124.557 62.8384 119.799 64.7413 119.799 64.7413L101.402 57.447L97.4375 45.8712Z" fill="#4CAD61"/>
<path d="M89.0796 54.6092L86.6728 52.043C86.6728 52.043 67.476 78.9766 73.2811 81.9859C79.0862 84.9952 83.9608 83.4153 83.9608 83.4153L93.4366 66.0431L89.0796 54.6092Z" fill="#4CAD61"/>
<path d="M50.6563 142.308L171.111 118.266L161.044 67.8438L40.5898 91.8853L50.6563 142.308Z" fill="white"/>
<path d="M172.094 118.925L49.9962 143.295L39.6016 91.2289L161.699 66.8594L172.094 118.925ZM51.3115 141.323L170.122 117.61L160.384 68.8307L41.5731 92.5442L51.3115 141.323Z" fill="#E4E4E4"/>
<path d="M152.814 84.0005L55.332 103.457L55.8394 105.998L153.321 86.5419L152.814 84.0005Z" fill="#E4E4E4"/>
<path d="M154.791 93.8951L57.3086 113.352L57.816 115.893L155.298 96.4364L154.791 93.8951Z" fill="#E4E4E4"/>
<path d="M156.779 103.848L59.2969 123.305L59.8042 125.846L157.286 106.39L156.779 103.848Z" fill="#E4E4E4"/>
<path d="M106.237 99.7909L102.827 100.471C102.578 100.521 102.32 100.469 102.109 100.329C101.897 100.188 101.751 99.9687 101.701 99.7197L100.089 91.6457C100.039 91.3967 100.091 91.1382 100.232 90.927C100.372 90.7158 100.591 90.5691 100.84 90.5191L104.25 89.8387C104.499 89.7892 104.757 89.8406 104.969 89.9815C105.18 90.1224 105.327 90.3414 105.376 90.5903L106.988 98.6643C107.038 98.9134 106.986 99.1718 106.846 99.383C106.705 99.5942 106.486 99.7409 106.237 99.7909V99.7909Z" fill="#4CAD61"/>
<path d="M145.073 102.33L141.663 103.01C141.414 103.06 141.156 103.008 140.944 102.868C140.733 102.727 140.587 102.508 140.537 102.259L138.925 94.1847C138.875 93.9357 138.927 93.6772 139.067 93.466C139.208 93.2548 139.427 93.1082 139.676 93.0582L143.086 92.3777C143.335 92.3283 143.593 92.3797 143.805 92.5206C144.016 92.6615 144.162 92.8804 144.212 93.1293L145.824 101.203C145.874 101.452 145.822 101.711 145.681 101.922C145.541 102.133 145.322 102.28 145.073 102.33Z" fill="#4CAD61"/>
<path d="M124.041 116.877L120.632 117.557C120.383 117.607 120.124 117.555 119.913 117.414C119.702 117.274 119.555 117.055 119.505 116.806L117.893 108.732C117.844 108.483 117.895 108.224 118.036 108.013C118.177 107.802 118.396 107.655 118.645 107.605L122.054 106.925C122.304 106.875 122.562 106.927 122.773 107.067C122.985 107.208 123.131 107.427 123.181 107.676L124.793 115.75C124.843 115.999 124.791 116.258 124.65 116.469C124.509 116.68 124.29 116.827 124.041 116.877V116.877Z" fill="#4CAD61"/>
<path d="M193.742 206H0.257636C0.189307 206 0.123776 205.895 0.0754597 205.707C0.0271435 205.52 0 205.265 0 205C0 204.735 0.0271435 204.48 0.0754597 204.293C0.123776 204.105 0.189307 204 0.257636 204H193.742C193.811 204 193.876 204.105 193.925 204.293C193.973 204.48 194 204.735 194 205C194 205.265 193.973 205.52 193.925 205.707C193.876 205.895 193.811 206 193.742 206Z" fill="#393939"/>
</svg>
