<svg width="24" height="29" viewBox="0 0 24 29" fill="none" xmlns="http://www.w3.org/2000/svg">
<path fill-rule="evenodd" clip-rule="evenodd" d="M6.375 10.5C6.375 7.3934 8.8934 4.875 12 4.875C15.1066 4.875 17.625 7.3934 17.625 10.5C17.625 13.6066 15.1066 16.125 12 16.125C8.8934 16.125 6.375 13.6066 6.375 10.5ZM12 7.125C10.136 7.125 8.625 8.63604 8.625 10.5C8.625 12.364 10.136 13.875 12 13.875C13.864 13.875 15.375 12.364 15.375 10.5C15.375 8.63604 13.864 7.125 12 7.125Z" fill="white"/>
<path fill-rule="evenodd" clip-rule="evenodd" d="M2.18462 9.19086C2.59526 4.20904 6.75833 0.375 11.757 0.375H12.243C17.2417 0.375 21.4048 4.20904 21.8154 9.19086C22.0355 11.8613 21.2106 14.5129 19.5145 16.5872L14.1223 23.1817C13.0254 24.5232 10.9746 24.5232 9.87768 23.1817L4.48548 16.5872C2.78937 14.5129 1.9645 11.8613 2.18462 9.19086ZM11.757 2.625C7.92931 2.625 4.74146 5.56089 4.42701 9.37569C4.25478 11.4651 4.9002 13.5399 6.22731 15.1629L11.6195 21.7574C11.8162 21.9979 12.1838 21.9979 12.3805 21.7574L17.7727 15.1629C19.0998 13.5399 19.7452 11.4651 19.573 9.37569C19.2586 5.56089 16.0707 2.625 12.243 2.625H11.757Z" fill="white"/>
<path d="M5.50623 21.5031C5.7841 20.9474 5.55884 20.2716 5.00312 19.9938C4.44739 19.7159 3.77163 19.9412 3.49377 20.4969L0.493771 26.4969C0.319402 26.8456 0.338037 27.2598 0.543019 27.5914C0.748002 27.9231 1.1101 28.125 1.5 28.125H22.5C22.8899 28.125 23.252 27.9231 23.457 27.5914C23.662 27.2598 23.6806 26.8456 23.5062 26.4969L20.5062 20.4969C20.2284 19.9412 19.5526 19.7159 18.9969 19.9938C18.4412 20.2716 18.2159 20.9474 18.4938 21.5031L20.6797 25.875H3.32029L5.50623 21.5031Z" fill="white"/>
</svg>
