<svg width="321" height="205" viewBox="0 0 321 205" fill="none" xmlns="http://www.w3.org/2000/svg">
<g clip-path="url(#clip0_5012_9117)">
<path d="M258.62 199.246H253.018L250.354 177.643L258.621 177.643L258.62 199.246Z" fill="#9E616A"/>
<path d="M260.049 204.676L241.986 204.676V204.447C241.986 202.583 242.727 200.795 244.046 199.477C245.364 198.159 247.152 197.418 249.017 197.418H249.017L260.049 197.418L260.049 204.676Z" fill="#2F2E41"/>
<path d="M224.048 199.246H218.446L215.781 177.643L224.049 177.643L224.048 199.246Z" fill="#9E616A"/>
<path d="M225.476 204.676L207.414 204.676V204.447C207.414 202.583 208.155 200.795 209.473 199.477C210.792 198.159 212.58 197.418 214.444 197.418H214.445L225.477 197.418L225.476 204.676Z" fill="#2F2E41"/>
<path d="M210.074 78.265L202.316 77.0664L199.809 81.1003L172.837 87.9749L172.91 88.3467C172.147 87.5504 171.145 87.0242 170.057 86.8477C168.968 86.6712 167.852 86.8541 166.876 87.3687C165.901 87.8832 165.12 88.7014 164.651 89.6995C164.182 90.6975 164.052 91.8211 164.278 92.9001C164.505 93.9792 165.078 94.955 165.909 95.6798C166.74 96.4047 167.784 96.8391 168.884 96.9175C169.984 96.9958 171.08 96.7138 172.005 96.114C172.93 95.5142 173.635 94.6294 174.013 93.5934L206.677 86.7817L210.074 78.265Z" fill="#9E616A"/>
<path d="M287.559 73.4608C286.92 73.4613 286.288 73.583 285.694 73.8192L285.849 73.5493L251.556 55.8262L246.881 63.3834L282.534 79.2076C282.664 80.1733 283.069 81.0813 283.701 81.823C284.333 82.5646 285.166 83.1084 286.099 83.3894C287.032 83.6704 288.026 83.6766 288.963 83.4074C289.9 83.1382 290.739 82.6049 291.38 81.8714C292.022 81.1378 292.438 80.2349 292.58 79.2709C292.722 78.3068 292.583 77.3223 292.18 76.4351C291.777 75.5479 291.127 74.7956 290.307 74.2681C289.488 73.7406 288.534 73.4603 287.559 73.4608H287.559Z" fill="#9E616A"/>
<path d="M233.46 27.2366C234.8 18.9788 229.191 11.1982 220.932 9.85815C212.674 8.51809 204.892 14.126 203.552 22.3838C202.211 30.6417 207.82 38.4223 216.079 39.7623C224.338 41.1024 232.12 35.4944 233.46 27.2366Z" fill="#2F2E41"/>
<path d="M218.375 39.8283C223.713 39.8283 228.04 35.502 228.04 30.1651C228.04 24.8283 223.713 20.502 218.375 20.502C213.038 20.502 208.711 24.8283 208.711 30.1651C208.711 35.502 213.038 39.8283 218.375 39.8283Z" fill="#A0616A"/>
<path d="M218.507 26.8993C224.277 26.8993 228.955 24.093 228.955 20.6313C228.955 17.1696 224.277 14.3633 218.507 14.3633C212.736 14.3633 208.059 17.1696 208.059 20.6313C208.059 24.093 212.736 26.8993 218.507 26.8993Z" fill="#2F2E41"/>
<path d="M219.55 15.9305C223.012 15.9305 225.819 13.1242 225.819 9.66253C225.819 6.20081 223.012 3.39453 219.55 3.39453C216.088 3.39453 213.281 6.20081 213.281 9.66253C213.281 13.1242 216.088 15.9305 219.55 15.9305Z" fill="#2F2E41"/>
<path d="M211.193 6.26798C211.193 4.71865 211.767 3.22426 212.804 2.07306C213.841 0.921856 215.268 0.195424 216.809 0.0338918C216.592 0.0113692 216.374 5.58767e-05 216.156 0C214.495 0.00193721 212.902 0.663166 211.728 1.83843C210.554 3.0137 209.895 4.60689 209.895 6.268C209.895 7.92912 210.554 9.5223 211.728 10.6976C212.902 11.8728 214.495 12.5341 216.156 12.536C216.374 12.536 216.592 12.5246 216.809 12.5021C215.268 12.3406 213.841 11.6141 212.804 10.4629C211.767 9.31173 211.193 7.81731 211.193 6.26798V6.26798Z" fill="#2F2E41"/>
<path d="M213.352 54.1551L214.131 46.6633C214.131 46.6633 224.706 39.6954 228.299 43.8137L249.78 80.5609C249.78 80.5609 263.132 85.3074 262.66 103.432L262.022 191.041L246.881 192.701L237.687 124.396L229.38 195.163L211.752 194.611L213.338 147.991L221.744 102.798L221.663 87.8017L217.961 81.7496C217.961 81.7496 211.18 79.0258 210.99 71.3281L210.842 60.5078L213.352 54.1551Z" fill="#4CAD61"/>
<path d="M224.439 45.8693L224.648 42.3574C224.648 42.3574 256.634 50.785 254.096 56.8107C251.559 62.8364 246.801 64.7393 246.801 64.7393L228.404 57.445L224.439 45.8693Z" fill="#4CAD61"/>
<path d="M216.082 54.6092L213.675 52.043C213.675 52.043 194.478 78.9766 200.283 81.9859C206.088 84.9952 210.963 83.4153 210.963 83.4153L220.439 66.0431L216.082 54.6092Z" fill="#4CAD61"/>
<path d="M177.656 142.31L298.111 118.268L288.044 67.8457L167.59 91.8873L177.656 142.31Z" fill="white"/>
<path d="M299.096 118.925L176.998 143.295L166.604 91.2289L288.701 66.8594L299.096 118.925ZM178.313 141.323L297.124 117.61L287.386 68.8307L168.575 92.5442L178.313 141.323Z" fill="#E4E4E4"/>
<path d="M279.814 83.9986L182.332 103.455L182.839 105.996L280.321 86.5399L279.814 83.9986Z" fill="#E4E4E4"/>
<path d="M281.791 93.8951L184.309 113.352L184.816 115.893L282.298 96.4364L281.791 93.8951Z" fill="#E4E4E4"/>
<path d="M283.777 103.846L186.295 123.303L186.802 125.844L284.284 106.388L283.777 103.846Z" fill="#E4E4E4"/>
<path d="M233.239 99.7909L229.829 100.471C229.58 100.521 229.322 100.469 229.11 100.329C228.899 100.188 228.753 99.9687 228.703 99.7197L227.091 91.6457C227.041 91.3967 227.093 91.1382 227.234 90.927C227.374 90.7158 227.593 90.5691 227.842 90.5191L231.252 89.8387C231.501 89.7892 231.759 89.8406 231.971 89.9815C232.182 90.1224 232.328 90.3414 232.378 90.5903L233.99 98.6643C234.04 98.9134 233.988 99.1718 233.847 99.383C233.707 99.5942 233.488 99.7409 233.239 99.7909V99.7909Z" fill="#4CAD61"/>
<path d="M272.073 102.33L268.663 103.01C268.414 103.06 268.156 103.008 267.944 102.868C267.733 102.727 267.587 102.508 267.537 102.259L265.925 94.1847C265.875 93.9357 265.927 93.6772 266.067 93.466C266.208 93.2548 266.427 93.1082 266.676 93.0582L270.086 92.3777C270.335 92.3283 270.593 92.3797 270.805 92.5206C271.016 92.6615 271.162 92.8804 271.212 93.1293L272.824 101.203C272.874 101.452 272.822 101.711 272.681 101.922C272.541 102.133 272.322 102.28 272.073 102.33Z" fill="#4CAD61"/>
<path d="M251.041 116.875L247.632 117.555C247.383 117.605 247.124 117.553 246.913 117.412C246.702 117.272 246.555 117.053 246.505 116.804L244.893 108.73C244.844 108.481 244.895 108.222 245.036 108.011C245.177 107.8 245.396 107.653 245.645 107.603L249.054 106.923C249.304 106.873 249.562 106.925 249.773 107.066C249.985 107.206 250.131 107.425 250.181 107.674L251.793 115.748C251.843 115.997 251.791 116.256 251.65 116.467C251.509 116.678 251.29 116.825 251.041 116.875V116.875Z" fill="#4CAD61"/>
<path d="M320.742 206H127.258C127.189 206 127.124 205.895 127.075 205.707C127.027 205.52 127 205.265 127 205C127 204.735 127.027 204.48 127.075 204.293C127.124 204.105 127.189 204 127.258 204H320.742C320.811 204 320.876 204.105 320.925 204.293C320.973 204.48 321 204.735 321 205C321 205.265 320.973 205.52 320.925 205.707C320.876 205.895 320.811 206 320.742 206Z" fill="#393939"/>
</g>
<defs>
<clipPath id="clip0_5012_9117">
<rect width="321" height="205" fill="white"/>
</clipPath>
</defs>
</svg>
