<svg width="1260" height="565" viewBox="0 0 1260 565" fill="none" xmlns="http://www.w3.org/2000/svg">
<path d="M273.645 224.98C275.895 241.83 273.583 257.751 266.711 272.742C259.838 287.733 248.643 300.563 233.125 311.232C217.607 321.901 198.417 329.236 175.555 333.236L172.294 406.243C171.001 434.319 159.315 449.512 137.235 451.822C125.101 453.092 113.386 450.699 102.09 444.645C90.9922 438.57 81.3808 428.52 73.2556 414.496C65.1305 400.471 59.6385 382.754 56.7796 361.344C51.4061 321.101 53.3178 286.327 62.5149 257.022C71.8844 227.498 86.5829 204.653 106.61 188.487C126.811 172.101 150.138 162.524 176.594 159.756C195.292 157.8 211.542 159.416 225.345 164.605C239.347 169.773 250.384 177.664 258.457 188.276C266.703 198.67 271.765 210.905 273.645 224.98ZM176.836 302.046C216.925 292.625 234.495 269.379 229.545 232.308C227.798 219.224 222.005 209.076 212.168 201.864C202.503 194.433 188.62 191.664 170.519 193.559C150.03 195.702 132.988 204.019 119.393 218.507C105.996 232.974 96.6555 252.143 91.3717 276.013C86.2603 299.664 85.6635 326.16 89.5812 355.499C91.2224 367.79 93.8717 378.569 97.5293 387.834C101.386 397.079 105.561 404.18 110.055 409.137C114.722 413.875 118.845 416.057 122.426 415.682C127.398 415.162 130.265 407.927 131.024 393.978L133.366 336.746C125.449 336.369 122.002 336.227 123.023 336.321C116.923 335.954 112.806 334.576 110.671 332.186C108.511 329.598 107.152 326.223 106.596 322.06C106.014 317.698 106.744 314.104 108.787 311.277C111.029 308.43 114.338 306.777 118.714 306.319C120.703 306.111 122.208 306.054 123.229 306.148C128.109 306.441 131.855 306.552 134.467 306.48C134.989 290.746 135.902 269.645 137.209 243.176C137.502 236.311 139.552 231.272 143.359 228.06C147.338 224.628 152.212 222.611 157.98 222.007C164.544 221.32 169.391 222.12 172.52 224.405C175.821 226.472 177.829 230.182 178.544 235.534C178.967 238.706 179.113 241.304 178.979 243.328L176.836 302.046Z" fill="#66AA69"/>
<path d="M425.742 353.601C427.796 351.483 429.922 350.363 432.118 350.24C434.514 350.105 436.511 351.396 438.109 354.11C439.892 356.614 440.918 359.761 441.189 363.552C441.788 371.93 439.27 378.781 433.636 384.104C423.866 393.263 412.391 398.212 399.211 398.95C380.241 400.013 365.799 392.91 355.887 377.642C345.96 362.175 340.084 341.674 338.259 316.139C336.52 291.801 337.633 263.899 341.6 232.431C345.766 200.953 353.141 173.701 363.725 150.676C374.508 127.639 388.387 115.646 405.36 114.695C414.945 114.158 422.754 118.228 428.788 126.903C435.006 135.367 438.707 147.878 439.89 164.436C441.587 188.176 436.965 216.074 426.024 248.133C415.283 280.18 399.72 312.096 379.337 343.882C381.319 351.983 384.236 357.728 388.087 361.118C391.938 364.507 396.959 366.029 403.149 365.682C406.544 365.492 410.266 364.282 414.317 362.052C418.568 359.811 422.376 356.994 425.742 353.601ZM400.888 144.689C396.295 144.946 391.695 153.516 387.087 170.398C382.48 187.28 378.856 208.113 376.217 232.896C373.577 257.68 372.863 281.354 374.075 303.919C386.585 279.784 396.199 255.812 402.918 232.002C409.622 207.992 412.283 186.312 410.9 166.961C409.817 151.8 406.479 144.376 400.888 144.689Z" fill="#66AA69"/>
<path d="M522.78 394.278C510.983 394.535 500.805 391.856 492.246 386.241C483.881 380.422 477.465 372.76 473 363.255C468.534 353.751 466.148 343.5 465.842 332.505C465.42 317.311 467.844 303.755 473.114 291.837C478.579 279.716 486.119 270.249 495.733 263.438C505.342 256.427 516.245 252.789 528.442 252.523C540.239 252.266 550.42 255.045 558.985 260.86C567.544 266.474 574.057 274.034 578.523 283.539C582.988 293.044 585.374 303.294 585.68 314.29C586.103 329.484 583.581 343.142 578.116 355.263C572.646 367.185 565.006 376.654 555.197 383.669C545.583 390.48 534.777 394.016 522.78 394.278ZM525.179 361.818C531.977 361.67 537.573 357.847 541.966 350.35C546.559 342.848 548.659 332 548.264 317.806C547.958 306.81 545.728 298.557 541.573 293.046C537.418 287.535 532.542 284.841 526.943 284.963C519.745 285.12 513.849 288.949 509.256 296.451C504.857 303.748 502.858 314.594 503.258 328.989C503.575 340.384 505.808 348.737 509.957 354.048C514.106 359.359 519.18 361.949 525.179 361.818Z" fill="#66AA69"/>
<path d="M681.79 280.59C681.21 290.583 680.87 298.379 680.769 303.978C680.511 318.375 681.007 329.683 682.26 337.902C683.716 345.923 686.112 351.757 689.447 355.405C692.985 358.855 697.854 360.623 704.053 360.711C707.253 360.756 711.071 359.809 715.506 357.872C719.942 355.934 723.988 353.391 727.645 350.242C729.881 348.273 732.099 347.304 734.298 347.335C736.698 347.369 738.573 348.796 739.922 351.615C741.476 354.237 742.218 357.448 742.15 361.247C742.081 365.047 741.215 368.735 739.55 372.312C738.086 375.891 735.832 378.86 732.789 381.217C722.236 389.669 710.36 393.803 697.161 393.617C678.163 393.349 664.406 385.255 655.891 369.333C647.379 353.212 643.354 332.353 643.814 306.757C643.972 297.959 644.432 289.065 645.193 280.074L633.494 279.91C627.495 279.825 623.415 278.668 621.255 276.437C619.295 274.209 618.358 270.696 618.444 265.896C618.645 254.698 623.245 249.163 632.244 249.289L649.343 249.53C653.138 227.582 658.698 207.558 666.025 189.459C673.351 171.361 682.011 156.982 692.004 146.321C702.197 135.664 712.993 130.416 724.392 130.576C732.791 130.694 739.324 134.487 743.99 141.953C748.657 149.419 750.89 158.752 750.688 169.95C750.131 200.945 736.647 227.758 710.237 250.388L743.833 250.861C747.033 250.906 749.32 251.638 750.695 253.058C752.07 254.477 752.723 257.087 752.655 260.886C752.407 274.684 740.984 281.424 718.386 281.105L681.79 280.59ZM715.775 159.257C712.775 159.215 709.307 162.967 705.371 170.512C701.639 177.86 697.952 188.209 694.312 201.559C690.875 214.712 687.911 229.371 685.42 245.538C697.402 235.506 706.406 224.231 712.432 211.715C718.661 199.002 721.87 187.446 722.056 177.047C722.268 165.249 720.175 159.319 715.775 159.257Z" fill="#66AA69"/>
<path d="M885.887 341.043C888.484 341.169 890.407 342.463 891.658 344.926C893.108 347.399 893.703 350.731 893.444 354.923C893.001 362.11 890.92 368.216 887.204 373.241C881.08 381.554 873.276 387.884 863.79 392.23C854.505 396.585 843.57 398.459 830.984 397.85C811.807 396.921 797.276 390.512 787.391 378.621C777.519 366.53 773.187 350.704 774.395 331.141C775.246 317.367 778.932 304.732 785.452 293.235C791.985 281.538 800.562 272.443 811.181 265.949C822.001 259.466 833.903 256.538 846.888 257.166C858.474 257.727 867.547 261.67 874.108 268.995C880.68 276.121 883.603 285.572 882.875 297.35C882.024 311.124 876.297 322.759 865.692 332.257C855.299 341.564 838.038 348.537 813.908 353.175C818.135 362.59 825.942 367.573 837.329 368.124C845.519 368.521 852.328 366.948 857.757 363.407C863.385 359.875 869.972 353.787 877.519 345.143C880.101 342.264 882.89 340.898 885.887 341.043ZM839.981 286.264C832.59 285.906 826.032 289.893 820.308 298.226C814.783 306.567 811.645 316.827 810.893 329.004L810.856 329.602C822.815 327.378 832.363 323.636 839.5 318.375C846.637 313.115 850.434 306.792 850.89 299.406C851.125 295.613 850.211 292.565 848.149 290.263C846.299 287.771 843.577 286.438 839.981 286.264Z" fill="#66AA69"/>
<path d="M1039.16 270.629C1043.75 271.016 1046.87 271.881 1048.54 273.226C1050.2 274.57 1050.88 276.634 1050.58 279.418C1050.07 284.19 1045.65 300.974 1037.32 329.768C1029.72 357.419 1025.24 373.796 1023.89 378.899C1011.01 429.382 996.495 468.991 980.331 497.726C964.166 526.461 945.322 539.921 923.798 538.105C913.635 537.248 905.706 533.369 900.014 526.468C894.3 519.765 891.989 511.343 893.081 501.202C894.086 491.856 897.206 482.488 902.44 473.097C907.874 463.723 917.055 453.16 929.983 441.409C943.09 429.873 961.183 416.852 984.262 402.344L985.898 395.56C988.085 388.32 990.813 377.915 994.084 364.346C988.557 378.327 981.8 388.793 973.812 395.744C965.845 402.497 957.876 405.537 949.904 404.864C940.936 404.108 934.001 399.409 929.099 390.769C924.418 381.946 922.741 371.371 924.068 359.042C925.673 344.128 928.136 330.591 931.456 318.43C934.797 306.071 939.509 293.124 945.591 279.591C948.226 273.794 951.476 269.754 955.342 267.472C959.207 265.189 965.026 264.376 972.799 265.031C977.183 265.401 980.097 266.349 981.542 267.876C983.186 269.419 983.858 271.582 983.558 274.366C983.387 275.957 981.713 281.234 978.536 290.196C975.751 297.385 973.44 303.912 971.602 309.777C969.13 317.796 966.89 325.532 964.881 332.988C962.893 340.245 961.642 346.259 961.129 351.032C960.315 358.588 962.001 362.543 966.186 362.896C969.176 363.148 973.184 360.476 978.21 354.88C983.436 349.301 989.193 340.657 995.481 328.947C1001.97 317.255 1008.56 302.761 1015.24 285.467C1017.48 279.636 1020.33 275.562 1023.8 273.246C1027.46 270.947 1032.59 270.074 1039.16 270.629ZM930.201 509.45C935.183 509.87 941.384 504.574 948.804 493.562C956.223 482.55 964.467 463.882 973.534 437.558C956.797 449.189 944.374 459.98 936.265 469.93C928.333 480.097 923.939 489.157 923.083 497.111C922.719 500.492 923.017 503.326 923.977 505.614C925.137 507.919 927.212 509.198 930.201 509.45Z" fill="#66AA69"/>
<path d="M1191.48 369.845C1194.06 370.156 1195.86 371.582 1196.89 374.121C1198.11 376.685 1198.4 380.042 1197.76 384.194C1196.67 391.31 1194.04 397.234 1189.87 401.967C1183 409.796 1174.64 415.533 1164.77 419.176C1155.11 422.842 1144.02 423.922 1131.51 422.413C1112.45 420.115 1098.52 412.698 1089.73 400.162C1080.97 387.428 1078.08 371.375 1081.07 352.003C1083.16 338.363 1087.99 326.059 1095.54 315.091C1103.13 303.924 1112.51 295.493 1123.7 289.795C1135.09 284.121 1147.24 282.062 1160.15 283.619C1171.66 285.007 1180.37 289.58 1186.25 297.336C1192.17 304.895 1194.23 314.506 1192.43 326.169C1190.33 339.808 1183.56 350.971 1172.11 359.658C1160.89 368.171 1143.03 373.869 1118.52 376.753C1121.88 386.42 1129.22 391.936 1140.54 393.301C1148.68 394.283 1155.62 393.207 1161.36 390.073C1167.3 386.964 1174.43 381.381 1182.75 373.323C1185.59 370.645 1188.5 369.486 1191.48 369.845ZM1150.61 312.066C1143.27 311.18 1136.36 314.676 1129.89 322.554C1123.62 330.455 1119.55 340.435 1117.7 352.493L1117.61 353.086C1129.75 351.731 1139.62 348.693 1147.22 343.972C1154.82 339.252 1159.19 333.234 1160.31 325.92C1160.89 322.164 1160.26 319.068 1158.41 316.63C1156.79 314.018 1154.19 312.497 1150.61 312.066Z" fill="#66AA69"/>
</svg>
