<svg width="187" height="163" viewBox="0 0 187 163" fill="none" xmlns="http://www.w3.org/2000/svg">
<g clip-path="url(#clip0_3291_10991)">
<path d="M9.02318 55.5456L0.00650159 50.4876C-0.115123 45.0761 1.09144 39.7167 3.52143 34.875C5.60027 44.2722 16.5405 48.7431 21.5881 56.948C23.1428 59.5191 24.0966 62.4056 24.3788 65.3937C24.6611 68.3818 24.2646 71.3948 23.2187 74.2095L23.8118 81.4955C19.1516 80.1054 14.8495 77.7255 11.2018 74.52C7.55402 71.3144 4.64741 67.3594 2.68217 62.9273C1.60442 60.4301 0.846705 57.8076 0.426922 55.1218C4.63088 55.5673 9.02318 55.5456 9.02318 55.5456Z" fill="#F2F2F2"/>
<path d="M171.113 147.564L171.389 141.373C174.272 139.838 177.486 139.028 180.755 139.012C176.257 142.674 176.819 149.734 173.769 154.66C172.806 156.188 171.51 157.482 169.977 158.444C168.444 159.406 166.713 160.013 164.913 160.218L161.149 162.513C160.632 159.646 160.746 156.7 161.483 153.881C162.219 151.061 163.56 148.434 165.414 146.18C166.467 144.926 167.674 143.809 169.007 142.856C169.909 145.223 171.113 147.564 171.113 147.564Z" fill="#F2F2F2"/>
<path d="M161.414 159.326L158.006 159.325L156.385 146.232L161.415 146.233L161.414 159.326Z" fill="#FFB6B6"/>
<path d="M162.284 162.617L151.294 162.617V162.478C151.294 161.348 151.745 160.265 152.547 159.466C153.349 158.667 154.437 158.218 155.571 158.218H155.572L157.579 156.701L161.324 158.218L162.284 158.218L162.284 162.617Z" fill="#2F2E41"/>
<path d="M145.58 159.326L142.172 159.325L140.55 146.232L145.581 146.233L145.58 159.326Z" fill="#FFB6B6"/>
<path d="M146.449 162.617L135.46 162.617V162.478C135.46 161.348 135.91 160.265 136.713 159.466C137.515 158.667 138.603 158.218 139.737 158.218H139.737L141.745 156.701L145.49 158.218L146.45 158.218L146.449 162.617Z" fill="#2F2E41"/>
<path d="M144.105 87.7461L166.274 88.2981C170.484 90.5757 170.548 95.5052 169.169 101.358C169.169 101.358 169.634 104.837 168.703 105.764C167.771 106.692 167.306 106.692 167.771 108.315C168.237 109.939 165.777 112.59 166.075 112.888C166.374 113.186 167.073 114.809 167.073 114.809L164.744 128.028C164.744 128.028 163.114 150.988 162.649 151.452C162.183 151.915 161.717 151.452 162.183 152.611C162.649 153.771 163.114 153.307 162.649 153.771C162.236 154.214 161.847 154.678 161.484 155.162H155.855C155.855 155.162 155.43 152.843 155.43 152.611C155.43 152.379 154.964 150.988 154.964 150.756C154.964 150.524 155.376 150.114 155.376 150.114C155.518 149.643 155.614 149.159 155.663 148.669C155.663 148.205 157.06 130.347 157.06 130.347L154.266 107.156L147.513 129.884C147.513 129.884 147.513 149.828 147.047 150.292C146.581 150.756 146.582 150.524 146.814 151.452C147.047 152.379 147.979 152.147 147.28 152.843C146.582 153.539 146.349 152.379 146.581 153.539L146.814 154.698L139.829 154.798C139.829 154.798 138.897 152.843 139.363 152.147C139.829 151.452 139.801 151.642 139.233 150.503C138.664 149.364 138.432 149.133 138.664 148.901C138.897 148.669 138.897 147.435 138.897 147.435L140.062 125.245C140.062 125.245 140.294 101.822 140.294 101.126C140.312 100.768 140.246 100.411 140.101 100.083V99.1384L140.993 95.7921L144.105 87.7461Z" fill="#2F2E41"/>
<path d="M157.422 41.8356C161.226 41.8356 164.31 38.7642 164.31 34.9754C164.31 31.1866 161.226 28.1152 157.422 28.1152C153.618 28.1152 150.534 31.1866 150.534 34.9754C150.534 38.7642 153.618 41.8356 157.422 41.8356Z" fill="#FFB6B6"/>
<path d="M153.978 46.3694C152.494 47.248 151.606 48.8624 151.097 50.5052C150.153 53.5466 149.586 56.6911 149.406 59.8693L148.868 69.3841L142.202 89.644C147.979 94.5125 169.694 90.7505 169.694 90.7505C169.694 90.7505 170.36 90.5292 169.694 89.8653C169.027 89.2014 168.378 89.7896 169.045 89.1257C169.712 88.4618 169.252 89.2014 169.03 88.5375C168.808 87.8736 169.03 88.3162 169.252 88.0949C169.474 87.8736 167.532 85.882 167.532 85.882L169.309 74.2526L171.531 50.7953C168.865 47.4759 163.503 45.5191 163.503 45.5191L162.117 43.0352L155.189 43.5871L153.978 46.3694Z" fill="#3F3D56"/>
<path d="M153.033 30.949C153.3 30.951 153.565 30.9857 153.823 31.0522C154.332 31.174 154.848 31.2603 155.369 31.3104C156.964 31.4598 158.462 32.1371 159.625 33.2341C160.788 34.3311 161.548 35.7845 161.784 37.3623C162.184 37.0147 163.095 36.3754 163.841 36.9696C163.853 36.979 163.859 36.9838 163.885 36.9714C164.381 36.7372 165.261 33.8541 165.288 31.3157C165.302 29.9683 165.089 28.2478 163.995 27.703L163.937 27.6743L163.922 27.6119C163.849 27.3088 163.032 26.7914 161.613 26.3888C159.033 25.657 155.188 24.2316 153.023 26.3294C152.859 27.0366 152.326 28.5501 151.788 28.7216C151.191 28.9115 150.676 29.0754 150.595 29.8039C150.527 30.8406 150.532 31.8808 150.61 32.9169C150.812 32.2829 151.209 31.728 151.744 31.3303C152.125 31.0751 152.575 30.942 153.033 30.949Z" fill="#2F2E41"/>
<path d="M140.213 68.8554L151.464 61.6787L145.797 54.1758L140.201 61.0314L122.766 62.0964C122.307 61.6449 121.727 61.3361 121.095 61.2076C120.463 61.079 119.807 61.1363 119.208 61.3725C118.608 61.6087 118.09 62.0136 117.718 62.5377C117.345 63.0619 117.134 63.6827 117.109 64.3244C117.085 64.9662 117.248 65.6012 117.58 66.152C117.912 66.7028 118.397 67.1456 118.977 67.4264C119.557 67.7072 120.206 67.8139 120.846 67.7334C121.486 67.653 122.088 67.3889 122.58 66.9734L140.213 68.8554Z" fill="#FFB6B6"/>
<path d="M161.907 51.6598C162.56 55.5959 150.228 63.1122 150.228 63.1122C150.228 62.1883 142.868 69.1629 142.535 68.3967C141.591 66.219 140.927 61.0611 139.608 60.2356C138.853 59.7635 144.152 55.3283 144.152 55.3283C144.152 55.3283 146.926 52.5452 150.566 49.0348C151.577 48.0234 152.828 47.283 154.203 46.8827C155.578 46.4823 157.033 46.435 158.431 46.7451C158.431 46.7451 161.254 47.7238 161.907 51.6598Z" fill="#3F3D56"/>
<path d="M185.099 70.7391L177.656 59.6875L170.245 65.4893L177.245 70.9161L178.683 88.2547C178.24 88.7209 177.942 89.3055 177.826 89.9373C177.711 90.5691 177.782 91.2208 178.032 91.8129C178.282 92.405 178.699 92.9119 179.233 93.2718C179.767 93.6317 180.395 93.8291 181.04 93.8399C181.684 93.8506 182.318 93.6744 182.864 93.3325C183.41 92.9906 183.844 92.498 184.114 91.9146C184.384 91.3312 184.477 90.6823 184.383 90.047C184.288 89.4117 184.01 88.8174 183.583 88.3366L185.099 70.7391Z" fill="#FFB6B6"/>
<path d="M167.379 49.5008C171.317 48.7672 179.123 60.8875 179.123 60.8875C178.196 60.9072 185.353 68.0885 184.591 68.4356C182.425 69.4219 177.261 70.1921 176.46 71.5234C176.002 72.2848 171.438 67.1023 171.438 67.1023C171.438 67.1023 168.585 64.3993 164.985 60.8492C163.948 59.8643 163.178 58.6342 162.747 57.2734C162.316 55.9126 162.238 54.4653 162.52 53.0662C162.52 53.0662 163.442 50.2343 167.379 49.5008Z" fill="#3F3D56"/>
<path d="M187 162.672C187 162.715 186.992 162.758 186.975 162.798C186.959 162.838 186.934 162.874 186.904 162.905C186.873 162.935 186.837 162.959 186.797 162.976C186.757 162.992 186.714 163.001 186.67 163.001H108.999C108.911 163.001 108.827 162.966 108.765 162.904C108.704 162.843 108.669 162.759 108.669 162.672C108.669 162.585 108.704 162.502 108.765 162.44C108.827 162.378 108.911 162.344 108.999 162.344H186.67C186.714 162.344 186.757 162.352 186.797 162.368C186.837 162.385 186.873 162.409 186.904 162.44C186.934 162.47 186.959 162.506 186.975 162.546C186.992 162.586 187 162.629 187 162.672Z" fill="#CCCCCC"/>
<path d="M115.069 63.1445H20.8038C19.3311 63.1462 17.9191 63.7296 16.8777 64.7668C15.8363 65.804 15.2506 67.2102 15.2489 68.677V127.129C15.2506 128.595 15.8364 130.002 16.8777 131.039C17.9191 132.076 19.3311 132.659 20.8038 132.661H115.069C116.542 132.659 117.954 132.076 118.995 131.039C120.036 130.002 120.622 128.595 120.624 127.129V68.677C120.622 67.2102 120.036 65.8039 118.995 64.7668C117.954 63.7296 116.542 63.1462 115.069 63.1445Z" fill="#4CAD61"/>
<path d="M114.82 63.1445H20.5545C19.0818 63.1462 17.6698 63.7296 16.6284 64.7668C15.587 65.804 15.0013 67.2102 14.9996 68.677V127.129C15.0013 128.595 15.5871 130.002 16.6284 131.039C17.6698 132.076 19.0818 132.659 20.5545 132.661H114.82C116.292 132.659 117.704 132.076 118.746 131.039C119.787 130.002 120.373 128.595 120.375 127.129V68.677C120.373 67.2102 119.787 65.8039 118.746 64.7668C117.704 63.7296 116.292 63.1462 114.82 63.1445ZM116.643 105.131C116.62 111.082 114.257 116.787 110.059 121.022C105.862 125.257 100.165 127.685 94.1914 127.785C84.6265 127.909 99.4836 127.958 87.9476 127.958C61.5686 127.958 34.0626 127.707 23.7998 127.544C22.4496 127.516 21.1637 126.964 20.2167 126.005C19.2698 125.046 18.7368 123.756 18.7316 122.411V68.6813C18.7321 68.1997 18.9241 67.7378 19.2657 67.3968C19.6073 67.0558 20.0705 66.8633 20.5541 66.8616H114.816C115.299 66.8622 115.763 67.0534 116.105 67.3935C116.448 67.7336 116.641 68.1949 116.643 68.6765V105.131Z" fill="#3F3D56"/>
<path d="M103.442 29.4863H31.6222C30.9868 29.4872 30.3671 29.6834 29.8478 30.0482C29.3284 30.4129 28.9348 30.9284 28.7206 31.5242L17.6284 62.5179C17.4629 62.9806 17.4113 63.476 17.4779 63.9626C17.5446 64.4492 17.7275 64.9128 18.0114 65.3143C18.2953 65.7159 18.6719 66.0437 19.1094 66.2702C19.5469 66.4968 20.0327 66.6153 20.5258 66.6161L116.848 66.7863H116.853C117.362 66.7863 117.864 66.6603 118.313 66.4196C118.762 66.1789 119.144 65.831 119.424 65.4072C119.705 64.9833 119.875 64.4968 119.921 63.9911C119.966 63.4854 119.885 62.9764 119.684 62.5098L119.516 62.5814L119.684 62.5098L106.274 31.3458C106.037 30.7936 105.642 30.323 105.138 29.9924C104.635 29.6619 104.045 29.4859 103.442 29.4863Z" fill="#3F3D56"/>
<path d="M119.933 63.1823C119.933 63.5979 119.848 64.0091 119.684 64.3911L106.274 88.3803C106.036 88.9312 105.64 89.4006 105.137 89.7306C104.634 90.0607 104.045 90.2369 103.442 90.2377H31.6233C30.9876 90.2371 30.3676 90.0411 29.8479 89.6766C29.3282 89.3121 28.934 88.7968 28.7192 88.2009L17.6292 64.3829C17.4933 64.0034 17.4337 63.601 17.454 63.1986C17.4744 62.7962 17.5741 62.4018 17.7475 62.0378C17.921 61.6738 18.1648 61.3475 18.465 61.0774C18.7651 60.8073 19.1158 60.5988 19.4969 60.4638C19.8266 60.3452 20.1745 60.2845 20.525 60.2844L32.2912 60.2623L37.0935 60.254L100.286 60.1436L105.091 60.1354L116.849 60.1133H116.852C117.669 60.1134 118.453 60.4368 119.031 61.0123C119.608 61.5878 119.933 62.3684 119.933 63.1823Z" fill="#3F3D56"/>
<path d="M98.9698 10.6309H38.4126C36.7896 10.6327 35.2337 11.2756 34.0862 12.4186C32.9386 13.5615 32.293 15.1111 32.2912 16.7275V90.2377H103.442C104.027 90.2396 104.599 90.0738 105.091 89.7603V16.7275C105.089 15.1111 104.444 13.5615 103.296 12.4186C102.149 11.2757 100.593 10.6327 98.9698 10.6309Z" fill="#E6E6E6"/>
<path d="M75.8559 15.5742H42.669C41.1912 15.5757 39.7743 16.1608 38.7291 17.2013C37.6839 18.2417 37.0957 19.6526 37.0935 21.1244V90.2381H100.286V39.9056C100.279 33.4548 97.7023 27.2703 93.1224 22.7089C88.5425 18.1475 82.3329 15.5817 75.8559 15.5742Z" fill="white"/>
<path d="M89.5203 84.0996H47.8593C47.4992 84.0996 47.1538 84.2421 46.8992 84.4957C46.6445 84.7493 46.5015 85.0933 46.5015 85.452C46.5015 85.8106 46.6445 86.1546 46.8992 86.4082C47.1538 86.6618 47.4992 86.8043 47.8593 86.8043H89.5203C89.8804 86.8043 90.2258 86.6618 90.4804 86.4082C90.7351 86.1546 90.8781 85.8106 90.8781 85.452C90.8781 85.0933 90.7351 84.7493 90.4804 84.4957C90.2258 84.2421 89.8804 84.0996 89.5203 84.0996Z" fill="#E4E4E4"/>
<path d="M89.5203 78.752H47.8593C47.4988 78.752 47.1531 78.8946 46.8982 79.1485C46.6433 79.4023 46.5001 79.7467 46.5001 80.1057C46.5001 80.4647 46.6433 80.809 46.8982 81.0629C47.1531 81.3168 47.4988 81.4594 47.8593 81.4594H89.5203C89.8808 81.4594 90.2265 81.3168 90.4814 81.0629C90.7363 80.809 90.8795 80.4647 90.8795 80.1057C90.8795 79.7467 90.7363 79.4023 90.4814 79.1485C90.2265 78.8946 89.8808 78.752 89.5203 78.752Z" fill="#E4E4E4"/>
<path d="M65.9187 73.4063H47.8593C47.4992 73.4062 47.1538 73.5487 46.8992 73.8023C46.6445 74.056 46.5015 74.3999 46.5015 74.7586C46.5015 75.1173 46.6445 75.4612 46.8992 75.7149C47.1538 75.9685 47.4992 76.111 47.8593 76.111H65.9187C66.2788 76.111 66.6242 75.9685 66.8788 75.7149C67.1335 75.4612 67.2765 75.1173 67.2765 74.7586C67.2765 74.3999 67.1335 74.056 66.8788 73.8023C66.6242 73.5487 66.2788 73.4063 65.9187 73.4063Z" fill="#E4E4E4"/>
<path d="M89.5203 62.2051H47.8593C47.4988 62.2051 47.1531 62.3477 46.8982 62.6016C46.6433 62.8555 46.5001 63.1998 46.5001 63.5588C46.5001 63.9178 46.6433 64.2622 46.8982 64.516C47.1531 64.7699 47.4988 64.9126 47.8593 64.9126H89.5203C89.8808 64.9126 90.2265 64.7699 90.4814 64.516C90.7363 64.2622 90.8795 63.9178 90.8795 63.5588C90.8795 63.1998 90.7363 62.8555 90.4814 62.6016C90.2265 62.3477 89.8808 62.2051 89.5203 62.2051Z" fill="#E4E4E4"/>
<path d="M89.5203 56.8594H47.8593C47.4992 56.8594 47.1538 57.0019 46.8992 57.2555C46.6445 57.5091 46.5015 57.8531 46.5015 58.2117C46.5015 58.5704 46.6445 58.9144 46.8992 59.168C47.1538 59.4216 47.4992 59.5641 47.8593 59.5641H89.5203C89.8804 59.5641 90.2258 59.4216 90.4804 59.168C90.7351 58.9144 90.8781 58.5704 90.8781 58.2117C90.8781 57.8531 90.7351 57.5091 90.4804 57.2555C90.2258 57.0019 89.8804 56.8594 89.5203 56.8594Z" fill="#E4E4E4"/>
<path d="M65.9187 51.5117H47.8593C47.4988 51.5117 47.1531 51.6543 46.8982 51.9082C46.6433 52.1621 46.5001 52.5064 46.5001 52.8655C46.5001 53.2245 46.6433 53.5688 46.8982 53.8227C47.1531 54.0766 47.4988 54.2192 47.8593 54.2192H65.9187C66.2791 54.2192 66.6249 54.0766 66.8798 53.8227C67.1347 53.5688 67.2779 53.2245 67.2779 52.8655C67.2779 52.5064 67.1347 52.1621 66.8798 51.9082C66.6249 51.6543 66.2791 51.5117 65.9187 51.5117Z" fill="#E4E4E4"/>
<path d="M89.5203 40.3105H47.8593C47.4988 40.3105 47.1531 40.4532 46.8982 40.707C46.6433 40.9609 46.5001 41.3052 46.5001 41.6643C46.5001 42.0233 46.6433 42.3676 46.8982 42.6215C47.1531 42.8754 47.4988 43.018 47.8593 43.018H89.5203C89.8808 43.018 90.2265 42.8754 90.4814 42.6215C90.7363 42.3676 90.8795 42.0233 90.8795 41.6643C90.8795 41.3052 90.7363 40.9609 90.4814 40.707C90.2265 40.4532 89.8808 40.3105 89.5203 40.3105Z" fill="#4CAD61"/>
<path d="M89.5203 34.9648H47.8593C47.4988 34.9648 47.1531 35.1075 46.8982 35.3613C46.6433 35.6152 46.5001 35.9595 46.5001 36.3186C46.5001 36.6776 46.6433 37.0219 46.8982 37.2758C47.1531 37.5297 47.4988 37.6723 47.8593 37.6723H89.5203C89.8808 37.6723 90.2265 37.5297 90.4814 37.2758C90.7363 37.0219 90.8795 36.6776 90.8795 36.3186C90.8795 35.9595 90.7363 35.6152 90.4814 35.3613C90.2265 35.1075 89.8808 34.9648 89.5203 34.9648Z" fill="#4CAD61"/>
<path d="M65.9187 29.6172H47.8593C47.4988 29.6172 47.1531 29.7598 46.8982 30.0137C46.6433 30.2676 46.5001 30.6119 46.5001 30.9709C46.5001 31.33 46.6433 31.6743 46.8982 31.9282C47.1531 32.182 47.4988 32.3247 47.8593 32.3247H65.9187C66.2791 32.3247 66.6249 32.182 66.8798 31.9282C67.1347 31.6743 67.2779 31.33 67.2779 30.9709C67.2779 30.6119 67.1347 30.2676 66.8798 30.0137C66.6249 29.7598 66.2791 29.6172 65.9187 29.6172Z" fill="#4CAD61"/>
<path d="M87.0517 32.1706C94.7678 32.1706 101.023 25.9291 101.023 18.2299C101.023 10.5306 94.7678 4.28906 87.0517 4.28906C79.3356 4.28906 73.0804 10.5306 73.0804 18.2299C73.0804 25.9291 79.3356 32.1706 87.0517 32.1706Z" fill="#4CAD61"/>
<path d="M85.0815 25.7378C84.832 25.7378 84.5858 25.6798 84.3626 25.5684C84.1394 25.4569 83.9453 25.2952 83.7956 25.0959L79.8529 19.8494C79.7255 19.6809 79.6328 19.489 79.5799 19.2847C79.527 19.0803 79.515 18.8676 79.5446 18.6586C79.5742 18.4496 79.6449 18.2486 79.7525 18.0669C79.8601 17.8852 80.0026 17.7265 80.1718 17.5999C80.341 17.4733 80.5336 17.3812 80.7385 17.329C80.9434 17.2767 81.1566 17.2653 81.3659 17.2955C81.5752 17.3256 81.7765 17.3967 81.9582 17.5046C82.14 17.6125 82.2986 17.7551 82.425 17.9243L85.0045 21.3564L91.6295 11.439C91.866 11.085 92.2338 10.8392 92.6518 10.7558C93.0699 10.6723 93.5041 10.758 93.8589 10.9941C94.2136 11.2301 94.4599 11.5971 94.5435 12.0144C94.6271 12.4316 94.5412 12.8649 94.3047 13.2189L86.4193 25.0233C86.2766 25.2368 86.0848 25.413 85.8598 25.5373C85.6348 25.6615 85.3833 25.7301 85.1263 25.7373C85.1114 25.7375 85.0965 25.7378 85.0815 25.7378Z" fill="white"/>
<path d="M56.5464 107.656C56.5464 108.449 56.3411 109.177 55.9304 109.84C55.5197 110.503 54.9224 111.044 54.1384 111.464C53.3544 111.884 52.4211 112.131 51.3384 112.206L50.7364 115.58C50.5031 116.877 49.8684 117.526 48.8324 117.526C48.2631 117.526 47.7357 117.358 47.2504 117.022C46.7744 116.686 46.3917 116.173 46.1024 115.482C45.8131 114.791 45.6684 113.942 45.6684 112.934C45.6684 111.039 45.9717 109.434 46.5784 108.118C47.1944 106.793 48.0157 105.803 49.0424 105.15C50.0784 104.487 51.2171 104.156 52.4584 104.156C53.3357 104.156 54.0777 104.31 54.6844 104.618C55.3004 104.926 55.7624 105.346 56.0704 105.878C56.3877 106.401 56.5464 106.993 56.5464 107.656ZM51.5904 110.764C53.5037 110.521 54.4604 109.527 54.4604 107.782C54.4604 107.166 54.2551 106.667 53.8444 106.284C53.4431 105.892 52.8177 105.696 51.9684 105.696C51.0071 105.696 50.1671 105.999 49.4484 106.606C48.7391 107.213 48.1884 108.057 47.7964 109.14C47.4137 110.213 47.2224 111.441 47.2224 112.822C47.2224 113.401 47.2784 113.914 47.3904 114.362C47.5117 114.81 47.6611 115.16 47.8384 115.412C48.0251 115.655 48.2024 115.776 48.3704 115.776C48.6037 115.776 48.7811 115.454 48.9024 114.81L49.3644 112.164C49.0004 112.108 48.8417 112.085 48.8884 112.094C48.6084 112.047 48.4264 111.963 48.3424 111.842C48.2584 111.711 48.2164 111.548 48.2164 111.352C48.2164 111.147 48.2724 110.983 48.3844 110.862C48.5057 110.741 48.6691 110.68 48.8744 110.68C48.9677 110.68 49.0377 110.685 49.0844 110.694C49.3084 110.731 49.4811 110.755 49.6024 110.764C49.7237 110.036 49.8964 109.061 50.1204 107.838C50.1764 107.521 50.3024 107.297 50.4984 107.166C50.7037 107.026 50.9417 106.956 51.2124 106.956C51.5204 106.956 51.7397 107.017 51.8704 107.138C52.0104 107.25 52.0804 107.432 52.0804 107.684C52.0804 107.833 52.0711 107.955 52.0524 108.048L51.5904 110.764ZM62.268 112.878C62.3894 112.878 62.4827 112.934 62.548 113.046C62.6227 113.158 62.66 113.312 62.66 113.508C62.66 113.881 62.5714 114.171 62.394 114.376C61.9927 114.871 61.554 115.277 61.078 115.594C60.6114 115.911 60.0794 116.07 59.482 116.07C58.6607 116.07 58.0494 115.697 57.648 114.95C57.256 114.203 57.06 113.237 57.06 112.052C57.06 110.913 57.2047 109.616 57.494 108.16C57.7927 106.704 58.2267 105.453 58.796 104.408C59.3747 103.363 60.0607 102.84 60.854 102.84C61.302 102.84 61.652 103.05 61.904 103.47C62.1654 103.881 62.296 104.473 62.296 105.248C62.296 106.359 61.988 107.647 61.372 109.112C60.756 110.577 59.9207 112.029 58.866 113.466C58.9314 113.849 59.0387 114.124 59.188 114.292C59.3374 114.451 59.5334 114.53 59.776 114.53C60.1587 114.53 60.4947 114.423 60.784 114.208C61.0734 113.984 61.442 113.606 61.89 113.074C62.002 112.943 62.128 112.878 62.268 112.878ZM60.546 104.226C60.3314 104.226 60.0887 104.613 59.818 105.388C59.5474 106.163 59.3094 107.124 59.104 108.272C58.8987 109.42 58.7867 110.521 58.768 111.576C59.4307 110.484 59.958 109.392 60.35 108.3C60.742 107.199 60.938 106.195 60.938 105.29C60.938 104.581 60.8074 104.226 60.546 104.226ZM68.6684 111.702C68.7898 111.702 68.8831 111.763 68.9484 111.884C69.0138 112.005 69.0464 112.159 69.0464 112.346C69.0464 112.794 68.9111 113.06 68.6404 113.144C68.0804 113.34 67.4644 113.452 66.7924 113.48C66.6151 114.264 66.2651 114.894 65.7424 115.37C65.2198 115.837 64.6271 116.07 63.9644 116.07C63.4044 116.07 62.9238 115.935 62.5224 115.664C62.1304 115.393 61.8318 115.034 61.6264 114.586C61.4211 114.138 61.3184 113.653 61.3184 113.13C61.3184 112.421 61.4538 111.791 61.7244 111.24C61.9951 110.68 62.3684 110.246 62.8444 109.938C63.3204 109.621 63.8478 109.462 64.4264 109.462C65.1358 109.462 65.7051 109.709 66.1344 110.204C66.5731 110.689 66.8298 111.291 66.9044 112.01C67.3431 111.982 67.8658 111.889 68.4724 111.73C68.5471 111.711 68.6124 111.702 68.6684 111.702ZM64.0764 114.586C64.3751 114.586 64.6318 114.465 64.8464 114.222C65.0704 113.979 65.2198 113.629 65.2944 113.172C65.0051 112.976 64.7811 112.719 64.6224 112.402C64.4731 112.085 64.3984 111.749 64.3984 111.394C64.3984 111.245 64.4124 111.095 64.4404 110.946H64.3704C63.9971 110.946 63.6844 111.128 63.4324 111.492C63.1898 111.847 63.0684 112.351 63.0684 113.004C63.0684 113.517 63.1664 113.909 63.3624 114.18C63.5678 114.451 63.8058 114.586 64.0764 114.586ZM74.4443 112.878C74.5657 112.878 74.659 112.934 74.7243 113.046C74.799 113.158 74.8363 113.312 74.8363 113.508C74.8363 113.881 74.7477 114.171 74.5703 114.376C74.169 114.871 73.7303 115.277 73.2543 115.594C72.7783 115.911 72.2323 116.07 71.6163 116.07C69.7123 116.07 68.7603 114.731 68.7603 112.052C68.7603 111.641 68.7743 111.226 68.8023 110.806H68.2563C67.9763 110.806 67.785 110.755 67.6823 110.652C67.589 110.549 67.5423 110.386 67.5423 110.162C67.5423 109.639 67.7523 109.378 68.1723 109.378H68.9703C69.129 108.351 69.3717 107.413 69.6983 106.564C70.025 105.715 70.417 105.038 70.8743 104.534C71.341 104.03 71.8403 103.778 72.3723 103.778C72.7643 103.778 73.0723 103.951 73.2963 104.296C73.5203 104.641 73.6323 105.075 73.6323 105.598C73.6323 107.045 73.0257 108.305 71.8123 109.378H73.3803C73.5297 109.378 73.637 109.411 73.7023 109.476C73.7677 109.541 73.8003 109.663 73.8003 109.84C73.8003 110.484 73.273 110.806 72.2183 110.806H70.5103C70.4917 111.273 70.4823 111.637 70.4823 111.898C70.4823 112.869 70.5943 113.55 70.8183 113.942C71.0517 114.334 71.4157 114.53 71.9103 114.53C72.3117 114.53 72.6663 114.409 72.9743 114.166C73.2823 113.923 73.6463 113.559 74.0663 113.074C74.1783 112.943 74.3043 112.878 74.4443 112.878ZM71.9943 105.122C71.8543 105.122 71.6957 105.299 71.5183 105.654C71.3503 105.999 71.187 106.485 71.0283 107.11C70.879 107.726 70.753 108.412 70.6503 109.168C71.201 108.692 71.6117 108.16 71.8823 107.572C72.1623 106.975 72.3023 106.433 72.3023 105.948C72.3023 105.397 72.1997 105.122 71.9943 105.122ZM79.9404 112.878C80.0617 112.878 80.1551 112.934 80.2204 113.046C80.2951 113.158 80.3324 113.312 80.3324 113.508C80.3324 113.881 80.2437 114.171 80.0664 114.376C79.7211 114.796 79.2311 115.183 78.5964 115.538C77.9711 115.893 77.2991 116.07 76.5804 116.07C75.6004 116.07 74.8397 115.804 74.2984 115.272C73.7571 114.74 73.4864 114.012 73.4864 113.088C73.4864 112.444 73.6217 111.847 73.8924 111.296C74.1631 110.736 74.5364 110.293 75.0124 109.966C75.4977 109.639 76.0437 109.476 76.6504 109.476C77.1917 109.476 77.6257 109.639 77.9524 109.966C78.2791 110.283 78.4424 110.717 78.4424 111.268C78.4424 111.912 78.2091 112.467 77.7424 112.934C77.2851 113.391 76.5057 113.755 75.4044 114.026C75.6377 114.455 76.0811 114.67 76.7344 114.67C77.1544 114.67 77.6304 114.525 78.1624 114.236C78.7037 113.937 79.1704 113.55 79.5624 113.074C79.6744 112.943 79.8004 112.878 79.9404 112.878ZM76.4124 110.848C76.0671 110.848 75.7731 111.049 75.5304 111.45C75.2971 111.851 75.1804 112.337 75.1804 112.906V112.934C75.7311 112.803 76.1651 112.607 76.4824 112.346C76.7997 112.085 76.9584 111.781 76.9584 111.436C76.9584 111.259 76.9071 111.119 76.8044 111.016C76.7111 110.904 76.5804 110.848 76.4124 110.848ZM86.3605 112.906C86.4818 112.906 86.5752 112.967 86.6405 113.088C86.7152 113.2 86.7525 113.345 86.7525 113.522C86.7525 113.737 86.7198 113.905 86.6545 114.026C86.5892 114.147 86.4865 114.255 86.3465 114.348L83.6585 116.154C83.3038 118.086 82.8372 119.603 82.2585 120.704C81.6892 121.815 80.9612 122.37 80.0745 122.37C79.5985 122.37 79.2112 122.221 78.9125 121.922C78.6138 121.633 78.4645 121.25 78.4645 120.774C78.4645 120.335 78.5625 119.887 78.7585 119.43C78.9638 118.973 79.3372 118.445 79.8785 117.848C80.4292 117.26 81.2038 116.583 82.2025 115.818L82.2445 115.496C82.3098 115.151 82.3845 114.656 82.4685 114.012C82.2818 114.684 82.0205 115.197 81.6845 115.552C81.3485 115.897 80.9938 116.07 80.6205 116.07C80.2005 116.07 79.8552 115.879 79.5845 115.496C79.3232 115.104 79.1925 114.619 79.1925 114.04C79.1925 113.34 79.2392 112.701 79.3325 112.122C79.4258 111.534 79.5798 110.913 79.7945 110.26C79.8878 109.98 80.0185 109.779 80.1865 109.658C80.3545 109.537 80.6205 109.476 80.9845 109.476C81.1898 109.476 81.3298 109.509 81.4045 109.574C81.4885 109.639 81.5305 109.737 81.5305 109.868C81.5305 109.943 81.4792 110.195 81.3765 110.624C81.2832 110.969 81.2085 111.282 81.1525 111.562C81.0778 111.945 81.0125 112.313 80.9565 112.668C80.9005 113.013 80.8725 113.298 80.8725 113.522C80.8725 113.877 80.9705 114.054 81.1665 114.054C81.3065 114.054 81.4792 113.914 81.6845 113.634C81.8992 113.354 82.1232 112.929 82.3565 112.36C82.5992 111.791 82.8325 111.091 83.0565 110.26C83.1312 109.98 83.2432 109.779 83.3925 109.658C83.5512 109.537 83.7845 109.476 84.0925 109.476C84.3072 109.476 84.4565 109.504 84.5405 109.56C84.6245 109.616 84.6665 109.709 84.6665 109.84C84.6665 110.073 84.5452 110.876 84.3025 112.248L83.9385 114.502C84.6572 113.961 85.3572 113.466 86.0385 113.018C86.1598 112.943 86.2672 112.906 86.3605 112.906ZM80.2285 121.012C80.4618 121.012 80.7232 120.741 81.0125 120.2C81.3018 119.659 81.5912 118.758 81.8805 117.498C81.1618 118.105 80.6392 118.655 80.3125 119.15C79.9952 119.654 79.8365 120.093 79.8365 120.466C79.8365 120.625 79.8645 120.755 79.9205 120.858C79.9858 120.961 80.0885 121.012 80.2285 121.012ZM90.9037 113.298C91.0251 113.298 91.1184 113.354 91.1837 113.466C91.2584 113.578 91.2957 113.732 91.2957 113.928C91.2957 114.264 91.2164 114.553 91.0577 114.796C90.7964 115.197 90.4511 115.51 90.0217 115.734C89.6017 115.958 89.0977 116.07 88.5097 116.07C87.6137 116.07 86.9184 115.804 86.4237 115.272C85.9291 114.731 85.6817 114.003 85.6817 113.088C85.6817 112.444 85.8171 111.847 86.0877 111.296C86.3584 110.736 86.7317 110.293 87.2077 109.966C87.6931 109.639 88.2391 109.476 88.8457 109.476C89.3871 109.476 89.8211 109.639 90.1477 109.966C90.4744 110.283 90.6377 110.717 90.6377 111.268C90.6377 111.912 90.4044 112.467 89.9377 112.934C89.4804 113.391 88.6964 113.755 87.5857 114.026C87.8097 114.455 88.1877 114.67 88.7197 114.67C89.1024 114.67 89.4151 114.581 89.6577 114.404C89.9097 114.227 90.1991 113.928 90.5257 113.508C90.6377 113.368 90.7637 113.298 90.9037 113.298ZM88.6077 110.848C88.2624 110.848 87.9684 111.049 87.7257 111.45C87.4924 111.851 87.3757 112.337 87.3757 112.906V112.934C87.9264 112.803 88.3604 112.607 88.6777 112.346C88.9951 112.085 89.1537 111.781 89.1537 111.436C89.1537 111.259 89.1024 111.119 88.9997 111.016C88.9064 110.904 88.7757 110.848 88.6077 110.848Z" fill="#3F3D56"/>
</g>
<defs>
<clipPath id="clip0_3291_10991">
<rect width="187" height="163" fill="white"/>
</clipPath>
</defs>
</svg>
