<svg width="220" height="178" viewBox="0 0 220 178" fill="none" xmlns="http://www.w3.org/2000/svg">
<g clip-path="url(#clip0_5166_9243)">
<path d="M146.499 178L146.452 177.996L73.5016 171.208L7.16535 177.38C5.43334 177.541 3.70836 177.007 2.36988 175.894C1.03139 174.781 0.189056 173.182 0.0281676 171.447C0.0094415 171.245 7.09925e-05 171.043 5.47214e-05 170.84V12.8256C-0.00664092 11.1867 0.601335 9.605 1.70361 8.39371C2.80589 7.18241 4.3221 6.42981 5.95205 6.28492L73.5016 0L73.5483 0.00443869L146.499 6.7917L212.835 0.619781C214.567 0.45863 216.292 0.993195 217.63 2.10588C218.969 3.21856 219.811 4.81821 219.972 6.55293C219.991 6.75489 220 6.95739 220 7.16044V165.174C220.007 166.813 219.399 168.395 218.296 169.606C217.194 170.818 215.678 171.57 214.048 171.715L146.499 178Z" fill="#393939"/>
<path d="M101.691 58.4568C87.5696 48.1562 72.7117 38.3888 57.5335 29.4273L56.7717 28.9776V59.3714H102.945L101.691 58.4568ZM57.7807 58.3608V30.7486C72.2199 39.3034 86.3588 48.5857 99.8419 58.3608L57.7807 58.3608ZM173.157 120.92C167.05 114.56 160.785 108.346 154.362 102.276C152.591 100.601 150.809 98.9398 149.017 97.2917C138.076 87.2261 126.776 77.6532 115.116 68.5729L114.98 68.4668H56.7717V121.776H173.98L173.157 120.92ZM57.7807 120.765V69.4774H114.634C125.877 78.2368 136.816 87.4863 147.45 97.226C149.297 98.9162 151.131 100.62 152.952 102.337C159.319 108.33 165.537 114.473 171.606 120.765H57.7807ZM173.157 120.92C167.05 114.56 160.785 108.346 154.362 102.276C152.591 100.601 150.809 98.9398 149.017 97.2917C138.076 87.2261 126.776 77.6532 115.116 68.5729L114.98 68.4668H56.7717V121.776H173.98L173.157 120.92ZM57.7807 120.765V69.4774H114.634C125.877 78.2368 136.816 87.4863 147.45 97.226C149.297 98.9162 151.131 100.62 152.952 102.337C159.319 108.33 165.537 114.473 171.606 120.765H57.7807ZM101.691 58.4568C87.5696 48.1562 72.7117 38.3888 57.5335 29.4273L56.7717 28.9776V59.3714H102.945L101.691 58.4568ZM57.7807 58.3608V30.7486C72.2199 39.3034 86.3588 48.5857 99.8419 58.3608L57.7807 58.3608ZM101.691 58.4568C87.5696 48.1562 72.7117 38.3888 57.5335 29.4273L56.7717 28.9776V59.3714H102.945L101.691 58.4568ZM57.7807 58.3608V30.7486C72.2199 39.3034 86.3588 48.5857 99.8419 58.3608L57.7807 58.3608ZM173.157 120.92C167.05 114.56 160.785 108.346 154.362 102.276C152.591 100.601 150.809 98.9398 149.017 97.2917C138.076 87.2261 126.776 77.6532 115.116 68.5729L114.98 68.4668H56.7717V121.776H173.98L173.157 120.92ZM57.7807 120.765V69.4774H114.634C125.877 78.2368 136.816 87.4863 147.45 97.226C149.297 98.9162 151.131 100.62 152.952 102.337C159.319 108.33 165.537 114.473 171.606 120.765H57.7807ZM6.83008 130.871V131.882H46.6815V146.536H6.83008V147.546H47.6905V130.871H6.83008ZM56.7717 156.642V166.882L57.7807 166.788V157.652H213.17V156.642L56.7717 156.642ZM213.17 131.882V130.871H56.7717V147.546H213.17V146.536H57.7807V131.882L213.17 131.882ZM118.94 58.3608C99.5825 43.405 79.1395 29.914 57.7807 17.9999V7.76758L56.7717 7.86106V18.1726L57.5487 19.0282C78.8204 30.9099 99.1806 44.3593 118.461 59.2653L118.597 59.3714H213.17V58.3608L118.94 58.3608ZM46.6814 58.3608H6.83008V59.3714H47.6905V8.70491L46.6815 8.79839L46.6814 58.3608ZM213.17 68.4668H130.029L131.117 69.3612C141.353 77.7972 151.404 86.7444 161.269 96.2028C162.671 97.5468 164.069 98.9019 165.461 100.268C172.393 107.052 179.19 114.057 185.851 121.283L186.683 121.776H213.17V120.765H186.747C180.158 113.61 173.426 106.662 166.551 99.9218C165.176 98.5726 163.796 97.2327 162.411 95.9021C152.76 86.6273 142.903 77.8191 132.839 69.4774H213.17V68.4668ZM6.83008 156.642V157.652H46.6815V167.819L47.6905 167.725V156.642H6.83008ZM6.83008 68.4668V69.4774H46.6815V120.765H6.83008V121.776H47.6905V68.4668H6.83008ZM101.691 58.4568C87.5696 48.1562 72.7117 38.3888 57.5335 29.4273L56.7717 28.9776V59.3714H102.945L101.691 58.4568ZM57.7807 58.3608V30.7486C72.2199 39.3034 86.3588 48.5857 99.8419 58.3608L57.7807 58.3608ZM173.157 120.92C167.05 114.56 160.785 108.346 154.362 102.276C152.591 100.601 150.809 98.9398 149.017 97.2917C138.076 87.2261 126.776 77.6532 115.116 68.5729L114.98 68.4668H56.7717V121.776H173.98L173.157 120.92ZM57.7807 120.765V69.4774H114.634C125.877 78.2368 136.816 87.4863 147.45 97.226C149.297 98.9162 151.131 100.62 152.952 102.337C159.319 108.33 165.537 114.473 171.606 120.765H57.7807ZM101.691 58.4568C87.5696 48.1562 72.7117 38.3888 57.5335 29.4273L56.7717 28.9776V59.3714H102.945L101.691 58.4568ZM57.7807 58.3608V30.7486C72.2199 39.3034 86.3588 48.5857 99.8419 58.3608L57.7807 58.3608ZM173.157 120.92C167.05 114.56 160.785 108.346 154.362 102.276C152.591 100.601 150.809 98.9398 149.017 97.2917C138.076 87.2261 126.776 77.6532 115.116 68.5729L114.98 68.4668H56.7717V121.776H173.98L173.157 120.92ZM57.7807 120.765V69.4774H114.634C125.877 78.2368 136.816 87.4863 147.45 97.226C149.297 98.9162 151.131 100.62 152.952 102.337C159.319 108.33 165.537 114.473 171.606 120.765H57.7807Z" fill="white"/>
<path d="M112.679 66.5036C112.679 79.3008 89.5435 107.809 89.5435 107.809C89.5435 107.809 66.4082 79.3008 66.4082 66.5036C66.4082 60.3581 68.8457 54.4643 73.1844 50.1188C77.5231 45.7733 83.4077 43.332 89.5435 43.332C95.6794 43.332 101.564 45.7733 105.903 50.1188C110.241 54.4643 112.679 60.3581 112.679 66.5036Z" fill="#4CAD61"/>
<path d="M100.119 65.497C100.119 67.592 99.4988 69.64 98.3367 71.382C97.1746 73.124 95.5228 74.4816 93.5903 75.2834C91.6577 76.0851 89.5312 76.2949 87.4797 75.8862C85.4281 75.4774 83.5436 74.4686 82.0645 72.9872C80.5854 71.5058 79.5781 69.6183 79.17 67.5635C78.7619 65.5087 78.9714 63.3789 79.7719 61.4433C80.5723 59.5078 81.9279 57.8534 83.6672 56.6895C85.4064 55.5256 87.4512 54.9043 89.543 54.9043C90.932 54.9037 92.3076 55.1772 93.591 55.7093C94.8745 56.2414 96.0407 57.0216 97.0229 58.0054C98.0051 58.9891 98.7841 60.1571 99.3154 61.4426C99.8466 62.728 100.12 64.1058 100.119 65.497Z" fill="white"/>
<path d="M89.5431 124.533C92.9874 124.533 95.7796 121.737 95.7796 118.287C95.7796 114.838 92.9874 112.041 89.5431 112.041C86.0988 112.041 83.3066 114.838 83.3066 118.287C83.3066 121.737 86.0988 124.533 89.5431 124.533Z" fill="#4CAD61"/>
<path d="M149.297 39.8744C154.389 39.8744 158.517 35.7397 158.517 30.6393C158.517 25.539 154.389 21.4043 149.297 21.4043C144.204 21.4043 140.076 25.539 140.076 30.6393C140.076 35.7397 144.204 39.8744 149.297 39.8744Z" fill="#FFE587"/>
<path d="M178.212 59.0984H132.979C132.922 59.0991 132.865 59.0946 132.81 59.085L154.203 21.9705C154.334 21.7394 154.523 21.5471 154.752 21.4133C154.981 21.2795 155.242 21.209 155.507 21.209C155.772 21.209 156.032 21.2795 156.261 21.4133C156.49 21.5471 156.68 21.7394 156.81 21.9705L171.168 46.8772L171.856 48.069L178.212 59.0984Z" fill="white"/>
<path opacity="0.2" d="M178.213 59.0982H162.769L170.35 48.0686L170.895 47.2742L171.168 46.877L171.856 48.0686L178.213 59.0982Z" fill="black"/>
<path d="M203.398 59.0975H164.274L171.856 48.0681L172.401 47.2736L182.281 32.9002C182.928 31.9582 184.486 31.8995 185.248 32.7225C185.299 32.7786 185.346 32.838 185.39 32.9002L203.398 59.0975Z" fill="white"/>
<path d="M206.301 111.416C208.878 111.416 210.967 109.324 210.967 106.742C210.967 104.161 208.878 102.068 206.301 102.068C203.723 102.068 201.634 104.161 201.634 106.742C201.634 109.324 203.723 111.416 206.301 111.416Z" fill="white"/>
<path d="M206.751 120.821H205.795L206.231 106.039L206.751 120.821Z" fill="#CBCBCB"/>
<path d="M206.315 108.84L207.341 107.418L206.301 109.192L206.188 108.995L206.315 108.84Z" fill="#CBCBCB"/>
<path d="M206.203 110.277L205.177 108.855L206.217 110.629L206.329 110.432L206.203 110.277Z" fill="#CBCBCB"/>
<path d="M193.032 106.931C196.839 106.931 199.924 103.841 199.924 100.028C199.924 96.2156 196.839 93.125 193.032 93.125C189.225 93.125 186.14 96.2156 186.14 100.028C186.14 103.841 189.225 106.931 193.032 106.931Z" fill="white"/>
<path d="M193.696 120.823H192.284L192.928 98.9902L193.696 120.823Z" fill="#CBCBCB"/>
<path d="M193.052 103.127L194.567 101.027L193.031 103.647L192.865 103.356L193.052 103.127Z" fill="#CBCBCB"/>
<path d="M192.887 105.248L191.371 103.148L192.908 105.768L193.073 105.477L192.887 105.248Z" fill="#CBCBCB"/>
<path d="M33.0134 111.416C35.5908 111.416 37.6801 109.324 37.6801 106.742C37.6801 104.161 35.5908 102.068 33.0134 102.068C30.436 102.068 28.3467 104.161 28.3467 106.742C28.3467 109.324 30.436 111.416 33.0134 111.416Z" fill="white"/>
<path d="M33.4636 120.821H32.5078L32.9435 106.039L33.4636 120.821Z" fill="#CBCBCB"/>
<path d="M33.0277 108.84L34.054 107.418L33.0136 109.192L32.9014 108.995L33.0277 108.84Z" fill="#CBCBCB"/>
<path d="M32.915 110.277L31.8887 108.855L32.929 110.629L33.0413 110.432L32.915 110.277Z" fill="#CBCBCB"/>
<path d="M19.7439 106.931C23.5505 106.931 26.6363 103.841 26.6363 100.028C26.6363 96.2156 23.5505 93.125 19.7439 93.125C15.9374 93.125 12.8516 96.2156 12.8516 100.028C12.8516 103.841 15.9374 106.931 19.7439 106.931Z" fill="white"/>
<path d="M20.4077 120.823H18.9961L19.6398 98.9902L20.4077 120.823Z" fill="#CBCBCB"/>
<path d="M19.7648 103.127L21.2802 101.027L19.7441 103.647L19.5781 103.356L19.7648 103.127Z" fill="#CBCBCB"/>
<path d="M19.5987 105.248L18.083 103.148L19.6194 105.768L19.7854 105.477L19.5987 105.248Z" fill="#CBCBCB"/>
</g>
<defs>
<clipPath id="clip0_5166_9243">
<rect width="220" height="178" fill="white"/>
</clipPath>
</defs>
</svg>
