<svg width="268" height="320" viewBox="0 0 268 320" fill="none" xmlns="http://www.w3.org/2000/svg">
<g clip-path="url(#clip0_5950_13651)">
<path d="M103.798 262.642C98.4655 257.132 90.7378 253.972 82.5964 253.972L82.2823 253.972C76.9198 253.974 71.653 252.549 67.0205 249.843L66.5385 249.561L66.9267 249.161C69.0287 246.982 70.7838 244.492 72.1306 241.779C71.1741 242.672 70.0332 243.344 68.7888 243.747C67.5443 244.15 66.2267 244.274 64.9292 244.11C63.5594 243.946 62.2443 243.474 61.0827 242.728C59.921 241.983 58.9429 240.983 58.2217 239.805C55.3763 235.179 51.9844 228.616 51.9844 223.615C51.9888 219.389 52.872 215.21 54.5778 211.344C56.2835 207.479 58.7744 204.012 61.8915 201.164C63.865 199.381 65.4412 197.202 66.5176 194.767C67.5939 192.333 68.1461 189.699 68.1383 187.037L68.1367 186.658C68.1361 183.153 68.5636 179.661 69.4097 176.26L69.4956 175.916L69.8482 175.928C72.1225 176.006 74.398 175.815 76.6278 175.359C74.5363 175.102 72.4903 174.557 70.5477 173.739L70.1683 173.585L70.297 173.196C79.173 167.69 99.2085 170.541 110.838 143.882C120.267 122.266 153.539 163.071 153.539 186.658C153.539 189.065 151.161 192.245 152.941 193.836C172.178 211.032 158.905 222.074 154.72 233.185C153.727 235.821 155.88 238.715 155.88 241.567C155.88 242.051 155.868 242.55 155.843 243.052L155.806 243.822L155.165 243.395C153.896 242.562 152.72 241.595 151.656 240.511C152.76 243.055 153.28 245.814 153.178 248.586C153.076 251.357 152.356 254.071 151.069 256.527C149.053 260.339 147.103 263.069 145.272 264.638C139.408 269.666 131.849 272.26 124.14 271.889C116.43 271.518 109.154 268.21 103.798 262.642H103.798Z" fill="#66AA69"/>
<path d="M121.241 241.897C121.357 241.897 121.469 241.861 121.562 241.793C121.655 241.725 121.724 241.63 121.76 241.52C121.796 241.41 121.796 241.292 121.76 241.183C121.725 241.073 121.655 240.977 121.562 240.909C116.407 237.413 110.838 234.573 104.983 232.453C95.8361 229.098 81.9268 226.056 67.6074 230.623C67.539 230.644 67.4756 230.679 67.4208 230.725C67.3659 230.772 67.3207 230.828 67.2877 230.892C67.2547 230.956 67.2346 231.025 67.2285 231.097C67.2224 231.168 67.2305 231.24 67.2522 231.309C67.2739 231.377 67.3089 231.441 67.3552 231.495C67.4014 231.55 67.458 231.595 67.5217 231.628C67.5854 231.661 67.6549 231.681 67.7263 231.687C67.7977 231.693 67.8696 231.685 67.9378 231.663C81.9639 227.191 95.6211 230.182 104.608 233.479C110.369 235.562 115.849 238.355 120.922 241.793C121.014 241.861 121.126 241.897 121.241 241.897V241.897Z" fill="#3F3D56"/>
<path d="M146.182 179.664C146.19 179.549 146.162 179.434 146.101 179.336C146.04 179.238 145.95 179.162 145.844 179.118C145.737 179.075 145.619 179.066 145.508 179.094C145.396 179.122 145.296 179.184 145.222 179.272C141.37 184.172 138.141 189.533 135.61 195.231C131.611 204.131 127.582 217.812 131.096 232.45C131.112 232.52 131.143 232.586 131.185 232.644C131.227 232.702 131.28 232.751 131.341 232.789C131.402 232.826 131.47 232.851 131.541 232.863C131.611 232.874 131.683 232.871 131.753 232.854C131.823 232.837 131.888 232.807 131.946 232.765C132.004 232.723 132.053 232.669 132.091 232.608C132.128 232.547 132.153 232.479 132.164 232.408C132.175 232.337 132.172 232.265 132.155 232.195C128.713 217.856 132.675 204.424 136.604 195.68C139.092 190.073 142.267 184.798 146.055 179.976C146.129 179.888 146.173 179.779 146.182 179.664V179.664Z" fill="#3F3D56"/>
<path d="M231.072 148.562L222.701 117.517C222.343 116.203 221.483 115.083 220.307 114.398C219.131 113.714 217.734 113.52 216.417 113.858V113.858C215.736 114.033 215.097 114.345 214.54 114.776C213.983 115.206 213.519 115.746 213.177 116.362C212.835 116.978 212.622 117.657 212.55 118.358C212.479 119.059 212.551 119.768 212.761 120.44L222.444 152.421L227.509 172.102C226.772 172.666 226.225 173.445 225.944 174.331C225.663 175.218 225.661 176.169 225.939 177.057C226.217 177.944 226.76 178.725 227.496 179.292C228.232 179.859 229.124 180.185 230.051 180.227C230.979 180.268 231.896 180.023 232.68 179.524C233.463 179.024 234.074 178.296 234.429 177.436C234.785 176.577 234.867 175.629 234.666 174.721C234.465 173.813 233.99 172.989 233.306 172.361L231.072 148.562Z" fill="#A0616A"/>
<path d="M160.628 141.876L186.063 122.263C187.138 121.429 187.843 120.205 188.025 118.855C188.207 117.505 187.853 116.137 187.037 115.047V115.047C186.615 114.483 186.083 114.011 185.473 113.659C184.864 113.308 184.189 113.085 183.49 113.004C182.791 112.922 182.083 112.984 181.409 113.186C180.735 113.387 180.109 113.725 179.569 114.176L153.772 135.361L137.555 147.571C136.752 147.104 135.825 146.895 134.9 146.974C133.976 147.052 133.097 147.414 132.385 148.011C131.672 148.607 131.16 149.408 130.918 150.306C130.676 151.204 130.716 152.155 131.032 153.029C131.348 153.904 131.925 154.66 132.685 155.194C133.445 155.729 134.35 156.016 135.278 156.017C136.207 156.017 137.113 155.732 137.873 155.199C138.634 154.666 139.213 153.911 139.53 153.037L160.628 141.876Z" fill="#A0616A"/>
<path d="M181.359 146.386L180.238 171.474L215.441 163.808C212.445 153.727 210.407 152.008 212.659 144.992L181.359 146.386Z" fill="#A0616A"/>
<path d="M203.006 100.391H191.277L186.239 109.027L183.839 108.894C182.665 108.83 181.49 109.005 180.386 109.411C179.282 109.816 178.273 110.443 177.419 111.252C176.565 112.062 175.884 113.038 175.419 114.12C174.955 115.202 174.715 116.367 174.715 117.545V117.545L177.672 122.138C177.672 122.138 172.383 131.374 180.002 135.917C180.002 135.917 178.643 144.478 180.002 144.386C181.361 144.294 184.491 142.551 181.361 144.294C178.231 146.036 178.464 146.27 178.869 146.676L179.274 147.081L212.186 152.618C212.186 152.618 213.149 146.226 213.252 145.085C213.356 143.945 212.661 146.733 213.356 143.945C214.052 141.158 215.095 142.203 214.052 141.158C213.008 140.112 220.812 127.162 217.606 122.138L222.746 117.115C222.746 112.296 215.022 108.39 210.212 108.39H209.596L203.006 100.391Z" fill="#C8DEBE"/>
<path d="M245.3 297.29L241.307 299.863L229.5 285.657L235.393 281.859L245.3 297.29Z" fill="#A0616A"/>
<path d="M214.89 160.973C214.89 160.973 192.387 172.899 180.486 164.762C180.486 164.762 177.882 177.396 176.839 178.442C175.795 179.487 174.133 179.942 175.312 181.108C176.491 182.274 177.147 183.849 174.906 185.849C172.665 187.85 170.431 187.215 172.591 189.275C174.752 191.334 166.058 241.859 166.058 241.859C166.058 241.859 167.449 288.845 166.058 290.266C164.667 291.687 162.807 292.005 164.606 293.763C166.405 295.52 166.405 294.157 166.405 296.581V299.005L167.229 301.414H178.52C178.52 301.414 181.245 298.242 178.52 295.487C175.795 292.732 179.35 291.979 180.181 289.394C181.012 286.809 182.403 289.596 181.012 286.809C179.621 284.021 178.953 284.552 178.939 282.718C178.925 280.885 199.444 209.105 199.444 209.105L201.929 248.834L231.822 292.345L240.621 285.733C240.621 285.733 234.215 276.697 235.713 275.455C237.211 274.213 231.298 272.655 233.162 271.254C235.027 269.853 230.538 268.441 232.23 266.583C233.922 264.726 229.899 260.044 227.568 260.044C225.237 260.044 221.966 252.24 221.966 252.24L226.849 190.591L214.89 160.973Z" fill="#2F2E41"/>
<path d="M191.037 75.0334C190.878 75.2428 189.609 75.13 188.083 74.9068C185.067 74.4655 184.656 74.9899 182.4 77.0452C179.134 80.0224 180.991 98.1814 179.386 102.116L178.867 102.499C179.896 102.302 180.906 102.019 181.887 101.652C182.442 99.8999 182.997 98.142 183.557 96.3912C184.085 97.7534 184.417 99.184 184.543 100.64C185.32 100.333 186.092 99.5831 189.336 98.5772C190.97 97.4666 202.791 96.35 204.31 95.8614C208.167 82.714 201.952 77.3972 191.037 75.0334Z" fill="#2F2E41"/>
<path d="M195.03 95.3072C201.269 95.3072 206.326 90.2401 206.326 83.9895C206.326 77.739 201.269 72.6719 195.03 72.6719C188.792 72.6719 183.734 77.739 183.734 83.9895C183.734 90.2401 188.792 95.3072 195.03 95.3072Z" fill="#A0616A"/>
<path d="M202.142 74.0353C201.505 73.9412 200.893 73.7259 200.337 73.4012C200.061 73.2344 199.838 72.9934 199.693 72.7056C199.547 72.4178 199.486 72.0949 199.515 71.7737C199.654 70.9695 200.561 70.4894 201.375 70.5383C202.184 70.6552 202.953 70.9671 203.616 71.4472C203.543 70.67 203.212 69.94 202.675 69.3742C202.138 68.8085 201.427 68.4399 200.657 68.3277C201.726 68.2699 202.838 68.219 203.827 68.6311C204.815 69.0432 205.64 70.0636 205.461 71.1217C207.124 70.9071 208.763 72.0677 209.45 73.6C210.136 75.1322 210 76.9316 209.451 78.5187C209.397 78.7618 209.292 78.9903 209.142 79.1889C208.992 79.3875 208.801 79.5515 208.582 79.6697C208.023 79.8825 207.421 79.5257 206.936 79.174C204.403 77.3369 202.099 75.204 200.07 72.8204" fill="#2F2E41"/>
<path d="M207.066 96.0207C206.587 96.2466 206.837 97.087 206.465 97.4633C206.303 97.6226 206.108 97.744 205.894 97.8187C205.838 97.1173 205.675 96.4287 205.411 95.7768C205.362 95.6583 205.282 95.5259 205.157 95.5364C205.011 95.5538 204.973 95.7454 204.969 95.8883C204.94 96.597 204.783 97.2946 204.507 97.9476C204.503 97.9546 204.5 97.9651 204.496 97.972C204.388 97.9685 204.277 97.9651 204.173 97.9616C203.366 97.9302 201.578 95.8535 201.182 96.5573C202.58 94.0729 204.284 90.3375 204.545 87.4977C204.635 86.9031 204.591 86.2958 204.416 85.7206C204.325 85.4344 204.153 85.1805 203.922 84.989C203.691 84.7976 203.41 84.6766 203.112 84.6404C202.965 84.6337 202.819 84.6596 202.683 84.7163C202.547 84.7729 202.426 84.8589 202.327 84.9681C202.228 85.0773 202.155 85.207 202.112 85.348C202.069 85.4889 202.058 85.6376 202.079 85.7833L201.878 85.7555C200.007 84.2293 201.62 81.5775 199.443 80.5288C198.706 80.1733 194.192 81.3615 193.395 81.1525C193.378 80.3119 193.207 79.4816 192.891 78.7029C192.842 78.5844 192.762 78.452 192.637 78.4624C192.491 78.4799 192.453 78.6715 192.449 78.8144C192.42 79.5231 192.263 80.2207 191.987 80.8737C190.884 80.7169 189.76 80.7761 188.68 81.0479C187.727 81.2988 186.822 81.7309 185.866 81.9609C185.393 82.106 184.896 82.1531 184.404 82.0991C183.913 82.0452 183.438 81.8914 183.007 81.6472C181.794 80.8319 181.581 79.0269 182.187 77.6958C182.625 76.8417 183.216 76.0762 183.932 75.4379C184.478 74.9082 185.045 74.3995 185.612 73.8908C186.12 73.4343 186.628 72.9779 187.135 72.5214C187.775 71.9186 188.456 71.3621 189.173 70.8558C190.319 70.1032 191.607 69.5932 192.956 69.3571C194.306 69.121 195.69 69.1638 197.023 69.4829C198.622 69.8662 200.761 69.3261 202.225 70.0753C202.99 70.469 204.684 71.9778 205.355 72.5144C207.073 73.8838 205.911 72.768 207.79 73.5597C212.27 75.4477 210.289 94.5007 207.066 96.0207Z" fill="#2F2E41"/>
<path d="M81.9971 178.625C120.686 178.625 152.049 147.201 152.049 108.438C152.049 69.6741 120.686 38.25 81.9971 38.25C43.3086 38.25 11.9453 69.6741 11.9453 108.438C11.9453 147.201 43.3086 178.625 81.9971 178.625Z" fill="white"/>
<path d="M81.9971 179.327C42.9849 179.327 11.2461 147.527 11.2461 108.439C11.2461 69.3512 42.985 37.5508 81.9971 37.5508C121.009 37.5508 152.748 69.3512 152.748 108.439C152.748 147.527 121.009 179.327 81.9971 179.327ZM81.9971 38.952C43.7561 38.952 12.6446 70.1238 12.6446 108.439C12.6446 146.754 43.7561 177.926 81.9971 177.926C120.238 177.926 151.35 146.754 151.35 108.439C151.35 70.1238 120.238 38.952 81.9971 38.952Z" fill="#8FBA88"/>
<path d="M154.172 42.6374C154.367 41.2955 152.964 39.9802 151.039 39.6995C149.114 39.4189 147.395 40.2792 147.2 41.6211C147.006 42.963 148.408 44.2783 150.334 44.559C152.259 44.8396 153.978 43.9793 154.172 42.6374Z" fill="#E6E6E6"/>
<path d="M177.094 40.3953C177.289 39.0534 175.886 37.738 173.961 37.4574C172.036 37.1767 170.317 38.037 170.122 39.3789C169.927 40.7208 171.33 42.0361 173.255 42.3168C175.181 42.5974 176.899 41.7371 177.094 40.3953Z" fill="#3F3D56"/>
<path d="M147.895 24.0437C148.09 22.7018 146.687 21.3864 144.762 21.1058C142.837 20.8251 141.118 21.6854 140.923 23.0273C140.728 24.3692 142.131 25.6845 144.056 25.9652C145.981 26.2459 147.7 25.3856 147.895 24.0437Z" fill="#4CAD61"/>
<path d="M137.935 16.4296C137.944 15.1977 137.258 14.1938 136.403 14.1873C135.547 14.1808 134.846 15.1742 134.837 16.4061C134.828 17.6381 135.514 18.642 136.369 18.6485C137.224 18.6549 137.925 17.6615 137.935 16.4296Z" fill="#E6E6E6"/>
<path d="M134.556 2.24211C134.565 1.0102 133.879 0.00628659 133.024 -0.00019371C132.168 -0.00667401 131.468 0.986736 131.458 2.21865C131.449 3.45056 132.135 4.45447 132.99 4.46095C133.845 4.46743 134.546 3.47402 134.556 2.24211Z" fill="#3F3D56"/>
<path d="M160.821 27.207C160.831 25.975 160.145 24.9711 159.289 24.9647C158.434 24.9582 157.733 25.9516 157.724 27.1835C157.715 28.4154 158.4 29.4193 159.256 29.4258C160.111 29.4323 160.812 28.4389 160.821 27.207Z" fill="#E6E6E6"/>
<path d="M149.747 32.75C149.756 31.518 149.07 30.5141 148.215 30.5076C147.36 30.5012 146.659 31.4946 146.65 32.7265C146.64 33.9584 147.326 34.9623 148.182 34.9688C149.037 34.9752 149.738 33.9819 149.747 32.75Z" fill="#4CAD61"/>
<path d="M165.165 42.9921C165.174 41.7602 164.488 40.7563 163.633 40.7498C162.778 40.7434 162.077 41.7368 162.068 42.9687C162.058 44.2006 162.744 45.2045 163.599 45.211C164.455 45.2174 165.156 44.2241 165.165 42.9921Z" fill="#3F3D56"/>
<path d="M22.7115 208.915C22.9063 207.573 21.5036 206.258 19.5783 205.977C17.6531 205.696 15.9344 206.557 15.7395 207.898C15.5447 209.24 16.9474 210.556 18.8727 210.836C20.7979 211.117 22.5166 210.257 22.7115 208.915Z" fill="#E6E6E6"/>
<path d="M45.6333 206.673C45.8282 205.331 44.4254 204.015 42.5002 203.735C40.575 203.454 38.8563 204.314 38.6614 205.656C38.4666 206.998 39.8693 208.313 41.7945 208.594C43.7198 208.875 45.4384 208.014 45.6333 206.673Z" fill="#3F3D56"/>
<path d="M16.4341 190.321C16.629 188.979 15.2262 187.664 13.301 187.383C11.3758 187.102 9.65707 187.963 9.46221 189.305C9.26734 190.647 10.6701 191.962 12.5953 192.243C14.5206 192.523 16.2392 191.663 16.4341 190.321Z" fill="#4CAD61"/>
<path d="M6.47361 182.703C6.48291 181.471 5.79707 180.467 4.94175 180.461C4.08643 180.454 3.38551 181.448 3.37621 182.68C3.36691 183.911 4.05276 184.915 4.90808 184.922C5.76341 184.928 6.46432 183.935 6.47361 182.703Z" fill="#E6E6E6"/>
<path d="M3.0986 168.519C3.1079 167.288 2.42206 166.284 1.56674 166.277C0.711417 166.271 0.0105069 167.264 0.00120947 168.496C-0.00808793 169.728 0.677748 170.732 1.53307 170.738C2.38839 170.745 3.0893 169.751 3.0986 168.519Z" fill="#3F3D56"/>
<path d="M29.3642 193.484C29.3735 192.252 28.6877 191.248 27.8323 191.242C26.977 191.236 26.2761 192.229 26.2668 193.461C26.2575 194.693 26.9434 195.697 27.7987 195.703C28.654 195.71 29.3549 194.716 29.3642 193.484Z" fill="#E6E6E6"/>
<path d="M18.2861 199.027C18.2954 197.795 17.6096 196.791 16.7543 196.785C15.8989 196.778 15.198 197.772 15.1887 199.004C15.1794 200.236 15.8653 201.24 16.7206 201.246C17.5759 201.253 18.2768 200.259 18.2861 199.027Z" fill="#4CAD61"/>
<path d="M33.708 209.269C33.7173 208.038 33.0314 207.034 32.1761 207.027C31.3208 207.021 30.6199 208.014 30.6106 209.246C30.6013 210.478 31.2871 211.482 32.1424 211.488C32.9978 211.495 33.6987 210.501 33.708 209.269Z" fill="#3F3D56"/>
<g clip-path="url(#clip1_5950_13651)">
<path d="M45.7969 155.914C46.5074 156.625 47.5671 157.554 49.0062 158.392C50.5476 159.29 53.5702 160.701 57.5261 160.557C61.5723 160.406 64.3782 158.706 65.4861 158.018C66.8348 157.18 67.8464 156.288 68.5328 155.6C68.4907 149.854 68.4485 144.108 68.4124 138.362C89.7875 145.369 111.331 141.208 122.422 127.763C129.768 118.857 130.78 107.986 131.117 104.405C131.412 101.245 133.104 83.1029 120.538 69.8804C113.577 62.5547 105.473 60.1248 99.9633 58.5572C76.5169 51.8947 55.1538 60.7941 46.5555 65.0026L45.7969 155.914Z" fill="#DDECD4" stroke="#8FBA88" stroke-width="7" stroke-miterlimit="10"/>
<path d="M49.3555 151.51C53.5582 146.391 74.4276 120.579 80.6114 96.6181C83.8748 83.9805 81.7915 76.7151 80.7679 73.8089C78.7207 68.0207 75.3368 63.9689 72.9163 61.5391C69.5324 61.8586 65.3236 62.552 60.6632 64.0533C56.8759 65.2773 53.6726 66.7485 51.0835 68.1413C50.5055 95.9308 49.9335 123.714 49.3555 151.504V151.51Z" fill="#C8DEBE"/>
<path d="M110.735 68.8462C109.115 67.8936 107.17 68.5267 106.406 70.245L91.4974 103.955C90.7387 105.674 91.6539 107.091 93.5265 107.103L98.7168 107.139C100.595 107.151 102.137 108.701 102.143 110.582L102.203 131.721C102.203 133.602 103.624 134.537 105.352 133.795C105.352 133.795 112.457 130.75 118.003 124.051C121.236 120.144 123.006 116.316 123.939 113.862C126.372 107.489 126.36 102.129 126.324 99.361C126.27 95.0379 126.167 86.6872 120.67 78.439C116.545 72.2528 110.735 68.8402 110.735 68.8402V68.8462Z" fill="white"/>
<path d="M51.0401 70.2602C52.425 70.1939 57.6754 70.1155 62.3479 73.8959C63.522 74.8425 67.4237 78.2672 68.1824 83.754C68.4473 85.6713 68.2366 87.1787 68.1523 87.7033C67.3515 92.6413 63.8532 95.6138 62.7633 96.5424C57.8862 100.703 52.0938 100.673 50.4922 100.612L51.0401 70.2542V70.2602Z" fill="#DDECD4"/>
<path d="M96.3732 112.621L92.0078 116.371" stroke="#C8DEBF" stroke-width="6" stroke-miterlimit="10" stroke-linecap="round"/>
<path d="M86.8966 120.75L82.5312 124.494" stroke="#C8DEBF" stroke-width="7" stroke-miterlimit="10" stroke-linecap="round"/>
<path d="M77.43 128.871L73.0586 132.615" stroke="#C8DEBF" stroke-width="8" stroke-miterlimit="10" stroke-linecap="round"/>
</g>
</g>
<defs>
<clipPath id="clip0_5950_13651">
<rect width="268" height="320" fill="white"/>
</clipPath>
<clipPath id="clip1_5950_13651">
<rect width="88.5714" height="107.426" fill="white" transform="translate(44.2852 54.6484)"/>
</clipPath>
</defs>
</svg>
