<svg width="107" height="107" viewBox="0 0 107 107" fill="none" xmlns="http://www.w3.org/2000/svg">
<g clip-path="url(#clip0_3265_6962)">
<g opacity="0.5">
<path d="M53.5 107C83.0472 107 107 83.0472 107 53.5C107 23.9528 83.0472 0 53.5 0C23.9528 0 0 23.9528 0 53.5C0 83.0472 23.9528 107 53.5 107Z" fill="url(#paint0_linear_3265_6962)"/>
</g>
<path d="M53.6042 105.531C82.5283 105.531 105.976 82.083 105.976 53.1589C105.976 24.2347 82.5283 0.787109 53.6042 0.787109C24.68 0.787109 1.23242 24.2347 1.23242 53.1589C1.23242 82.083 24.68 105.531 53.6042 105.531Z" fill="#F5F5F5"/>
<path d="M53.6529 105.737C63.8864 105.754 73.8983 102.758 82.4402 97.1222C80.5103 86.5755 73.1659 85.9746 73.1659 85.9746H32.6653C32.6653 85.9746 25.7348 86.5433 23.5703 96.2454C32.377 102.44 42.8858 105.756 53.6529 105.737Z" fill="#4CAD61"/>
<path d="M53.0967 77.3321C67.0576 77.3321 78.3751 66.0146 78.3751 52.0538C78.3751 38.0929 67.0576 26.7754 53.0967 26.7754C39.1359 26.7754 27.8184 38.0929 27.8184 52.0538C27.8184 66.0146 39.1359 77.3321 53.0967 77.3321Z" fill="#40949D"/>
<path opacity="0.1" d="M44.9385 73.1094H61.1356V86.0674C61.1356 88.2148 60.2828 90.2742 58.7647 91.7929C57.2466 93.3116 55.1875 94.1652 53.0401 94.166C50.8922 94.166 48.8323 93.3128 47.3136 91.794C45.7948 90.2752 44.9415 88.2153 44.9415 86.0674V73.1094H44.9385Z" fill="black"/>
<path d="M45.4519 72.5078H60.6281C60.7643 72.5078 60.8949 72.5619 60.9912 72.6582C61.0875 72.7545 61.1416 72.8852 61.1416 73.0214V85.4659C61.1418 86.5298 60.9324 87.5833 60.5253 88.5662C60.1182 89.5492 59.5214 90.4423 58.7691 91.1945C58.0167 91.9467 57.1235 92.5433 56.1405 92.9502C55.1575 93.3571 54.1039 93.5664 53.04 93.566C50.8921 93.566 48.8322 92.7127 47.3134 91.1939C45.7946 89.6752 44.9414 87.6153 44.9414 85.4674V73.0214C44.9414 72.8857 44.9951 72.7555 45.0907 72.6593C45.1864 72.5631 45.3162 72.5086 45.4519 72.5078Z" fill="#A1A3A2"/>
<path opacity="0.1" d="M44.9678 79.2257C50.188 81.176 55.9341 81.1918 61.1649 79.2702V77.2773H44.9678V79.2257Z" fill="black"/>
<path d="M53.0964 80.3101C65.9186 80.3101 76.313 69.9156 76.313 57.0935C76.313 44.2714 65.9186 33.877 53.0964 33.877C40.2743 33.877 29.8799 44.2714 29.8799 57.0935C29.8799 69.9156 40.2743 80.3101 53.0964 80.3101Z" fill="#A1A3A2"/>
<path opacity="0.1" d="M36.5596 35.9761C36.5596 35.9761 46.3444 55.8371 73.9452 44.3031L67.5191 34.2271L56.1277 30.1387L36.5596 35.9761Z" fill="black"/>
<path d="M36.5596 35.6843C36.5596 35.6843 46.3444 55.5452 73.9452 44.0082L67.5191 33.9321L56.1277 29.8438L36.5596 35.6843Z" fill="#40949D"/>
<path d="M36.4739 34.3373C37.1337 32.295 38.2739 30.4408 39.7989 28.9306C44.3656 24.416 51.8525 23.4641 55.6925 18.3164C56.6123 19.7451 55.901 21.9418 54.3129 22.555C57.992 22.5305 62.2551 22.2086 64.3353 19.1825C64.8494 20.3793 65.0133 21.6975 64.8079 22.9837C64.6024 24.27 64.0362 25.4716 63.1749 26.4487C66.4355 26.602 69.9199 28.8095 70.1253 32.067C70.2663 34.2376 68.8989 36.2918 67.1222 37.5365C65.3455 38.7813 63.181 39.3531 61.0579 39.8206C54.8586 41.1896 32.4285 46.9182 36.4739 34.3373Z" fill="#40949D"/>
<path d="M29.8709 61.1216C31.0638 61.1216 32.0308 59.3083 32.0308 57.0715C32.0308 54.8348 31.0638 53.0215 29.8709 53.0215C28.678 53.0215 27.7109 54.8348 27.7109 57.0715C27.7109 59.3083 28.678 61.1216 29.8709 61.1216Z" fill="#A1A3A2"/>
<path d="M76.3103 61.1216C77.5032 61.1216 78.4703 59.3083 78.4703 57.0715C78.4703 54.8348 77.5032 53.0215 76.3103 53.0215C75.1174 53.0215 74.1504 54.8348 74.1504 57.0715C74.1504 59.3083 75.1174 61.1216 76.3103 61.1216Z" fill="#A1A3A2"/>
</g>
<defs>
<linearGradient id="paint0_linear_3265_6962" x1="53.5" y1="107" x2="53.5" y2="0" gradientUnits="userSpaceOnUse">
<stop stop-color="#808080" stop-opacity="0.25"/>
<stop offset="0.54" stop-color="#808080" stop-opacity="0.12"/>
<stop offset="1" stop-color="#808080" stop-opacity="0.1"/>
</linearGradient>
<clipPath id="clip0_3265_6962">
<rect width="107" height="107" fill="white"/>
</clipPath>
</defs>
</svg>
