<svg width="142" height="143" viewBox="0 0 142 143" fill="none" xmlns="http://www.w3.org/2000/svg">
<g clip-path="url(#clip0_6237_19823)">
<path d="M13.6556 120.466L12.4049 115.514C10.1875 114.57 7.91892 113.753 5.60986 113.066L5.45201 115.368L4.81183 112.832C1.94818 112.01 0 111.648 0 111.648C0 111.648 2.63087 121.695 8.15074 129.377L14.5819 130.511L9.58572 131.234C10.2801 132.073 11.0262 132.867 11.8199 133.612C19.8488 141.095 28.7917 144.528 31.7941 141.28C34.7965 138.032 30.7217 129.333 22.6928 121.852C20.2038 119.532 17.077 117.67 13.9471 116.205L13.6556 120.466Z" fill="#4CAD61"/>
<path d="M25.5502 115.088L27.0292 110.199C25.6169 108.241 24.0957 106.364 22.4729 104.577L21.1529 106.466L21.9101 103.963C19.8815 101.774 18.4 100.453 18.4 100.453C18.4 100.453 15.4803 110.419 16.2505 119.859L21.1719 124.168L16.5218 122.194C16.6845 123.273 16.9146 124.34 17.2108 125.39C20.2317 135.962 26.1197 143.542 30.3619 142.32C34.6041 141.098 35.5943 131.537 32.5733 120.965C31.6369 117.687 29.9184 114.471 27.9935 111.592L25.5502 115.088Z" fill="#4CAD61"/>
<path d="M99.0872 33.8768H98.3071V12.4194C98.3071 10.7885 97.9871 9.17351 97.3655 7.66672C96.7439 6.15992 95.8327 4.79082 94.6841 3.63757C93.5355 2.48432 92.1719 1.56951 90.6712 0.945372C89.1704 0.321237 87.562 0 85.9376 0H40.6585C37.378 0 34.2317 1.30847 31.912 3.63757C29.5923 5.96666 28.2891 9.12559 28.2891 12.4194V130.138C28.2891 131.769 28.609 133.384 29.2306 134.891C29.8523 136.398 30.7634 137.767 31.912 138.92C33.0606 140.073 34.4242 140.988 35.9249 141.612C37.4257 142.236 39.0342 142.558 40.6585 142.558H85.9376C89.2181 142.558 92.3643 141.249 94.684 138.92C97.0037 136.591 98.3069 133.432 98.3069 130.138V49.1506H99.087L99.0872 33.8768Z" fill="#E6E6E6"/>
<path d="M45.1766 4.23047C45.127 4.63238 45.1224 5.04008 45.1639 5.44591L46.1587 5.34427L45.1639 5.44591C45.2539 6.32717 45.5584 7.17294 46.0509 7.90871C46.5434 8.6445 47.2089 9.2478 47.989 9.66512C48.7691 10.0825 49.6397 10.3009 50.5241 10.3009H50.5242H76.4639C77.3484 10.301 78.2191 10.0826 78.9992 9.66529C79.7794 9.248 80.4449 8.6447 80.9375 7.9089C81.43 7.17313 81.7346 6.32732 81.8246 5.44603C81.8661 5.04016 81.8615 4.63242 81.8119 4.23047H86.4377C88.621 4.23047 90.7158 5.10126 92.2609 6.65259C93.8062 8.20405 94.675 10.3091 94.6751 12.505V130.053C94.6751 132.249 93.8062 134.354 92.261 135.906C90.7159 137.457 88.6211 138.328 86.4377 138.328H40.9405C38.7571 138.328 36.6624 137.457 35.1172 135.906C33.572 134.354 32.7031 132.249 32.7031 130.053V12.5052C32.7031 10.3093 33.572 8.20415 35.1172 6.65265C36.6624 5.10128 38.7571 4.23047 40.9405 4.23047H45.1766Z" fill="white" stroke="black" stroke-width="2"/>
<path d="M57.8913 50.0553C57.8912 49.2337 58.1066 48.4265 58.5159 47.715C58.9252 47.0035 59.514 46.4128 60.2229 46.0024C59.5143 45.5915 58.7105 45.3751 57.8922 45.375C57.0739 45.3749 56.2701 45.5911 55.5614 46.0018C54.8527 46.4126 54.2642 47.0034 53.855 47.7149C53.4459 48.4264 53.2305 49.2335 53.2305 50.055C53.2305 50.8766 53.4459 51.6837 53.855 52.3952C54.2642 53.1067 54.8527 53.6975 55.5614 54.1082C56.2701 54.519 57.0739 54.7352 57.8922 54.7351C58.7105 54.735 59.5143 54.5186 60.2229 54.1077C59.514 53.6974 58.9253 53.1068 58.516 52.3954C58.1067 51.684 57.8912 50.8769 57.8913 50.0553Z" fill="#CCCCCC"/>
<path d="M63.7507 50.0553C63.7506 49.2337 63.966 48.4265 64.3753 47.715C64.7846 47.0035 65.3733 46.4128 66.0823 46.0024C65.3737 45.5915 64.5699 45.3751 63.7516 45.375C62.9333 45.3749 62.1294 45.5911 61.4208 46.0018C60.7121 46.4126 60.1236 47.0034 59.7144 47.7149C59.3053 48.4264 59.0898 49.2335 59.0898 50.055C59.0898 50.8766 59.3053 51.6837 59.7144 52.3952C60.1236 53.1067 60.7121 53.6975 61.4208 54.1082C62.1294 54.519 62.9333 54.7352 63.7516 54.7351C64.5699 54.735 65.3737 54.5186 66.0823 54.1077C65.3734 53.6974 64.7847 53.1068 64.3754 52.3954C63.9661 51.684 63.7506 50.8769 63.7507 50.0553Z" fill="#CCCCCC"/>
<path d="M69.4776 54.7351C72.0519 54.7351 74.1388 52.6398 74.1388 50.055C74.1388 47.4703 72.0519 45.375 69.4776 45.375C66.9033 45.375 64.8164 47.4703 64.8164 50.055C64.8164 52.6398 66.9033 54.7351 69.4776 54.7351Z" fill="#4CAD61"/>
<path d="M77.2671 64.6727H50.1005C49.8419 64.6724 49.5939 64.5691 49.4111 64.3855C49.2282 64.2019 49.1253 63.9529 49.125 63.6933V36.417C49.1253 36.1573 49.2282 35.9083 49.4111 35.7247C49.5939 35.5411 49.8419 35.4378 50.1005 35.4375H77.2671C77.5258 35.4378 77.7737 35.5411 77.9566 35.7247C78.1395 35.9083 78.2424 36.1573 78.2427 36.417V63.6933C78.2424 63.9529 78.1395 64.2019 77.9566 64.3855C77.7737 64.5691 77.5258 64.6724 77.2671 64.6727ZM50.1005 35.8295C49.9453 35.8297 49.7966 35.8916 49.6868 36.0018C49.5771 36.112 49.5154 36.2613 49.5152 36.4172V63.6935C49.5154 63.8493 49.5771 63.9986 49.6868 64.1088C49.7966 64.219 49.9453 64.2809 50.1005 64.2811H77.2671C77.4223 64.2809 77.5711 64.219 77.6808 64.1088C77.7905 63.9986 77.8523 63.8493 77.8524 63.6935V36.4172C77.8523 36.2613 77.7905 36.112 77.6808 36.0018C77.5711 35.8916 77.4223 35.8297 77.2671 35.8295H50.1005Z" fill="#CCCCCC"/>
<path d="M83.3334 85.582H41.668V85.9739H83.3334V85.582Z" fill="#CCCCCC"/>
<path d="M42.9838 83.1345C43.7105 83.1345 44.2996 82.543 44.2996 81.8133C44.2996 81.0837 43.7105 80.4922 42.9838 80.4922C42.2571 80.4922 41.668 81.0837 41.668 81.8133C41.668 82.543 42.2571 83.1345 42.9838 83.1345Z" fill="#6C63FF"/>
<path d="M83.3334 98.793H41.668V99.1848H83.3334V98.793Z" fill="#CCCCCC"/>
<path d="M42.9838 96.3454C43.7105 96.3454 44.2996 95.7539 44.2996 95.0243C44.2996 94.2946 43.7105 93.7031 42.9838 93.7031C42.2571 93.7031 41.668 94.2946 41.668 95.0243C41.668 95.7539 42.2571 96.3454 42.9838 96.3454Z" fill="#6C63FF"/>
<path d="M82.5722 113.837H69.4048C69.1773 113.837 68.9593 113.746 68.7984 113.584C68.6376 113.423 68.5471 113.204 68.5469 112.976V108.342C68.5471 108.113 68.6376 107.895 68.7984 107.733C68.9593 107.572 69.1773 107.481 69.4048 107.48H82.5722C82.7996 107.481 83.0177 107.572 83.1785 107.733C83.3393 107.895 83.4298 108.113 83.4301 108.342V112.976C83.4298 113.204 83.3393 113.423 83.1785 113.584C83.0177 113.746 82.7996 113.837 82.5722 113.837Z" fill="#4CAD61"/>
<path d="M47.2768 83.1345C48.0035 83.1345 48.5926 82.543 48.5926 81.8133C48.5926 81.0837 48.0035 80.4922 47.2768 80.4922C46.5501 80.4922 45.9609 81.0837 45.9609 81.8133C45.9609 82.543 46.5501 83.1345 47.2768 83.1345Z" fill="#6C63FF"/>
<path d="M51.5658 83.1345C52.2925 83.1345 52.8816 82.543 52.8816 81.8133C52.8816 81.0837 52.2925 80.4922 51.5658 80.4922C50.8391 80.4922 50.25 81.0837 50.25 81.8133C50.25 82.543 50.8391 83.1345 51.5658 83.1345Z" fill="#6C63FF"/>
<path d="M47.2768 96.3454C48.0035 96.3454 48.5926 95.7539 48.5926 95.0243C48.5926 94.2946 48.0035 93.7031 47.2768 93.7031C46.5501 93.7031 45.9609 94.2946 45.9609 95.0243C45.9609 95.7539 46.5501 96.3454 47.2768 96.3454Z" fill="#6C63FF"/>
<path d="M51.5658 96.3454C52.2925 96.3454 52.8816 95.7539 52.8816 95.0243C52.8816 94.2946 52.2925 93.7031 51.5658 93.7031C50.8391 93.7031 50.25 94.2946 50.25 95.0243C50.25 95.7539 50.8391 96.3454 51.5658 96.3454Z" fill="#6C63FF"/>
<path d="M141.468 143.002H4.58896C4.29595 143.002 4.05859 142.897 4.05859 142.768C4.05859 142.64 4.29595 142.535 4.58896 142.535H141.468C141.761 142.535 141.998 142.64 141.998 142.768C141.998 142.897 141.761 143.002 141.468 143.002Z" fill="#3F3D56"/>
<path d="M107.652 93.6906C107.745 93.7336 107.835 93.784 107.921 93.8413L116.472 90.1771L116.777 87.9155L120.193 87.8945L119.992 93.0815L108.706 96.0782C108.682 96.157 108.653 96.2342 108.62 96.3095C108.457 96.6591 108.195 96.9525 107.866 97.1528C107.537 97.3531 107.157 97.4515 106.773 97.4355C106.389 97.4195 106.018 97.2899 105.707 97.063C105.396 96.8361 105.158 96.5219 105.024 96.16C104.891 95.7981 104.866 95.4045 104.954 95.0287C105.043 94.653 105.239 94.3117 105.52 94.0479C105.801 93.7841 106.153 93.6094 106.532 93.5459C106.912 93.4823 107.301 93.5327 107.652 93.6906Z" fill="#FFB8B8"/>
<path d="M121.437 140.692H119.1L117.988 131.641L121.438 131.641L121.437 140.692Z" fill="#FFB8B8"/>
<path d="M117.428 140.023H121.935V142.873H114.59C114.59 142.117 114.889 141.392 115.421 140.858C115.953 140.324 116.675 140.023 117.428 140.023Z" fill="#2F2E41"/>
<path d="M130.527 140.027L128.201 140.257L126.211 131.359L129.644 131.02L130.527 140.027Z" fill="#FFB8B8"/>
<path d="M126.473 139.756L130.959 139.312L131.237 142.148L123.927 142.871C123.89 142.499 123.927 142.123 124.035 141.764C124.143 141.406 124.321 141.073 124.557 140.784C124.794 140.495 125.084 140.255 125.413 140.079C125.742 139.902 126.102 139.793 126.473 139.756Z" fill="#2F2E41"/>
<path d="M122.085 78.3127C124.671 78.3127 126.767 76.2079 126.767 73.6114C126.767 71.015 124.671 68.9102 122.085 68.9102C119.499 68.9102 117.402 71.015 117.402 73.6114C117.402 76.2079 119.499 78.3127 122.085 78.3127Z" fill="#FFB8B8"/>
<path d="M118.576 138.863C118.375 138.863 118.181 138.792 118.027 138.663C117.873 138.533 117.769 138.353 117.734 138.155C116.525 131.412 112.57 109.365 112.476 108.755C112.474 108.741 112.473 108.726 112.473 108.712V107.068C112.473 107.009 112.491 106.95 112.526 106.901L113.048 106.167C113.073 106.131 113.106 106.102 113.143 106.082C113.181 106.061 113.223 106.049 113.266 106.047C116.245 105.907 125.998 105.496 126.469 106.087C126.943 106.681 126.776 108.481 126.737 108.836L126.739 108.873L131.121 137.01C131.155 137.234 131.1 137.463 130.968 137.647C130.835 137.831 130.636 137.955 130.413 137.993L127.676 138.445C127.472 138.478 127.263 138.436 127.087 138.328C126.912 138.219 126.78 138.051 126.718 137.853C125.871 135.137 123.033 126.001 122.049 122.466C122.043 122.444 122.029 122.424 122.01 122.412C121.99 122.399 121.967 122.394 121.944 122.397C121.921 122.4 121.9 122.412 121.885 122.429C121.87 122.447 121.862 122.47 121.862 122.493C121.911 125.863 122.03 134.461 122.071 137.43L122.076 137.75C122.077 137.966 121.998 138.176 121.854 138.337C121.709 138.497 121.51 138.598 121.295 138.618L118.656 138.859C118.629 138.861 118.602 138.863 118.576 138.863Z" fill="#2F2E41"/>
<path d="M119.114 80.1639C118.297 80.6516 117.808 81.5479 117.527 82.4599C117.008 84.1484 116.695 85.8942 116.596 87.6586L116.3 92.9416L112.629 106.947C115.81 109.65 117.646 109.036 121.929 106.825C126.211 104.614 126.701 107.562 126.701 107.562L127.557 95.6451L128.781 82.6229C128.506 82.2908 128.195 81.9907 127.854 81.7282C126.723 80.8451 125.407 80.2314 124.006 79.9331C122.604 79.6349 121.153 79.6599 119.763 80.0063L119.114 80.1639Z" fill="#4CAD61"/>
<path d="M117.923 96.5167C118.022 96.554 118.118 96.5991 118.209 96.6515L126.664 92.4026L126.804 90.1008L130.292 89.8594L130.479 95.1065L119.18 98.8581C119.088 99.2554 118.877 99.615 118.576 99.8893C118.276 100.164 117.899 100.339 117.496 100.393C117.093 100.447 116.684 100.377 116.322 100.191C115.96 100.006 115.663 99.7142 115.47 99.3551C115.277 98.996 115.198 98.5865 115.243 98.181C115.287 97.7755 115.454 97.3933 115.72 97.0852C115.986 96.7771 116.34 96.5576 116.733 96.4561C117.127 96.3545 117.542 96.3757 117.923 96.5167Z" fill="#FFB8B8"/>
<path d="M128.722 82.6793C130.802 83.4164 131.168 91.4027 131.168 91.4027C128.721 90.0512 125.784 92.2627 125.784 92.2627C125.784 92.2627 125.173 90.1741 124.438 87.4712C124.217 86.711 124.19 85.9068 124.361 85.1334C124.532 84.3601 124.896 83.6429 125.417 83.0484C125.417 83.0484 126.642 81.9417 128.722 82.6793Z" fill="#4CAD61"/>
<path d="M126.285 74.8563C125.702 74.3877 124.906 75.2395 124.906 75.2395L124.439 71.022C124.439 71.022 121.522 71.3729 119.655 70.9049C117.788 70.437 117.497 72.6038 117.497 72.6038C117.4 71.7285 117.381 70.8465 117.438 69.9678C117.555 68.9135 119.072 67.8591 121.756 67.1561C124.439 66.4531 125.839 69.4992 125.839 69.4992C127.706 70.4363 126.869 75.325 126.285 74.8563Z" fill="#2F2E41"/>
</g>
<defs>
<clipPath id="clip0_6237_19823">
<rect width="142" height="143" fill="white"/>
</clipPath>
</defs>
</svg>
